<svg width="185" height="138" viewBox="0 0 185 138" fill="none" xmlns="http://www.w3.org/2000/svg">
<g clip-path="url(#clip0_1_241)">
<path opacity="0.1" d="M95.9469 138C128.335 138 154.592 136.579 154.592 134.826C154.592 133.073 128.335 131.652 95.9469 131.652C63.5583 131.652 37.3021 133.073 37.3021 134.826C37.3021 136.579 63.5583 138 95.9469 138Z" fill="#63FFFF"/>
<path d="M129.165 122.382L128.661 123.122L125.542 127.762L122.895 128.56L120.919 126.627L121.015 125.351L121.508 118.725C121.508 118.725 109.285 111.535 108.193 110.19C107.1 108.845 102.897 107.626 102.897 107.626C102.897 107.626 96.4663 104.642 94.0706 99.4303C91.6749 94.2186 98.0634 93.42 98.0634 93.42L122.062 116.372L129.165 122.382Z" fill="#FFC1C7"/>
<path d="M132.107 125.072L124.5 132.175C124.5 132.175 120.129 133.015 116.22 132.427C113.722 132.05 114.203 130.68 114.86 129.737L114.872 129.72C115.266 129.181 115.841 128.802 116.493 128.654C119.727 127.874 120.843 125.532 120.843 125.532L123.197 127.55L127.274 122.799L130.288 124.214L132.107 125.072Z" fill="#575988"/>
<path opacity="0.1" d="M130.288 124.218L128.498 123.377L128.666 123.122L129.17 122.382L122.062 116.372L98.0634 93.4234C98.0634 93.4234 91.6749 94.2186 94.0706 99.4303C96.4663 104.642 102.897 107.626 102.897 107.626C102.897 107.626 107.1 108.845 108.193 110.19C109.285 111.535 121.516 118.722 121.516 118.722L121.023 125.347L121 125.663L120.843 125.531C120.843 125.531 119.727 127.873 116.493 128.653C115.841 128.8 115.266 129.179 114.872 129.718L114.86 129.735C114.188 130.677 113.722 132.047 116.22 132.425C120.129 133.014 124.5 132.173 124.5 132.173L132.107 125.07L130.288 124.218Z" fill="black"/>
<path opacity="0.1" d="M1.99225 72.2876C4.91078 84.7619 11.0891 95.5451 20.8518 100.775C41.1453 111.639 86.9089 106.036 121.062 99.5984C138.321 96.3573 153.987 87.4017 165.536 74.1738L1.99225 72.2876Z" fill="#63FFFF"/>
<path opacity="0.1" d="M181.097 13.5705H162.357C161.936 13.557 161.538 13.3804 161.245 13.0781C160.952 12.7758 160.789 12.3715 160.789 11.9507C160.789 11.5299 160.952 11.1256 161.245 10.8233C161.538 10.521 161.936 10.3444 162.357 10.3309H165.597C165.167 10.3309 164.755 10.1603 164.452 9.8567C164.148 9.55308 163.978 9.14129 163.978 8.71191C163.978 8.28253 164.148 7.87073 164.452 7.56712C164.755 7.2635 165.167 7.09293 165.597 7.09293H163.283C162.863 7.07938 162.464 6.90278 162.171 6.60049C161.879 6.29819 161.715 5.8939 161.715 5.47311C161.715 5.05232 161.879 4.64803 162.171 4.34573C162.464 4.04343 162.863 3.86684 163.283 3.85329H173.064C170.894 2.84458 168.357 2.12671 165.434 1.75012C138.763 -1.67445 129.241 0.590108 125.882 2.92695C121.738 5.80178 117.115 7.91671 112.174 8.93551C95.7182 12.3298 64.9441 16.4134 37.0516 7.62755C23.1886 3.25647 12.8863 10.6402 6.70959 22.9734H184.35C184.118 19.3891 183.424 16.0805 182.15 13.1822C181.856 13.4332 181.483 13.5709 181.097 13.5705Z" fill="#63FFFF"/>
<path opacity="0.1" d="M0.401834 46.2494C-0.317965 53.5045 -0.073751 60.823 1.12811 68.014L165.662 74.0309C170.243 68.7628 174.089 62.8982 177.094 56.5971L0.401834 46.2494ZM65.4771 61.7717H62.2375C62.4546 61.7648 62.6709 61.8015 62.8735 61.8797C63.0762 61.958 63.261 62.0762 63.417 62.2273C63.5731 62.3784 63.6972 62.5593 63.7819 62.7593C63.8667 62.9593 63.9103 63.1743 63.9103 63.3916C63.9103 63.6088 63.8667 63.8238 63.7819 64.0238C63.6972 64.2238 63.5731 64.4048 63.417 64.5559C63.261 64.707 63.0762 64.8252 62.8735 64.9034C62.6709 64.9817 62.4546 65.0184 62.2375 65.0114H43.4973C43.0767 64.9978 42.6779 64.8212 42.3852 64.5189C42.0925 64.2167 41.9288 63.8124 41.9288 63.3916C41.9288 62.9708 42.0925 62.5665 42.3852 62.2642C42.6779 61.9619 43.0767 61.7853 43.4973 61.7717H46.737C46.3076 61.7717 45.8958 61.6012 45.5922 61.2976C45.2885 60.9939 45.118 60.5821 45.118 60.1528C45.118 59.7234 45.2885 59.3116 45.5922 59.008C45.8958 58.7044 46.3076 58.5338 46.737 58.5338H44.4236C44.0031 58.5202 43.6043 58.3436 43.3116 58.0413C43.0188 57.739 42.8552 57.3348 42.8552 56.914C42.8552 56.4932 43.0188 56.0889 43.3116 55.7866C43.6043 55.4843 44.0031 55.3077 44.4236 55.2941H63.1638C63.5844 55.3077 63.9832 55.4843 64.2759 55.7866C64.5686 56.0889 64.7323 56.4932 64.7323 56.914C64.7323 57.3348 64.5686 57.739 64.2759 58.0413C63.9832 58.3436 63.5844 58.5202 63.1638 58.5338H65.4771C65.9065 58.5338 66.3183 58.7044 66.6219 59.008C66.9255 59.3116 67.0961 59.7234 67.0961 60.1528C67.0961 60.5821 66.9255 60.9939 66.6219 61.2976C66.3183 61.6012 65.9065 61.7717 65.4771 61.7717Z" fill="#63FFFF"/>
<path opacity="0.1" d="M184.359 23.081L4.7275 27.452C2.54196 33.0689 1.10118 39.412 0.428711 46.0006H181.212C182.391 42.1341 183.264 38.1806 183.822 34.1768C184.36 30.3084 184.576 26.5661 184.359 23.081ZM36.897 37.3946H33.6573C33.8744 37.3876 34.0907 37.4243 34.2934 37.5026C34.496 37.5808 34.6808 37.699 34.8369 37.8501C34.9929 38.0012 35.117 38.1821 35.2018 38.3822C35.2865 38.5822 35.3302 38.7972 35.3302 39.0144C35.3302 39.2316 35.2865 39.4466 35.2018 39.6466C35.117 39.8466 34.9929 40.0276 34.8369 40.1787C34.6808 40.3298 34.496 40.448 34.2934 40.5262C34.0907 40.6045 33.8744 40.6412 33.6573 40.6342H14.9172C14.4966 40.6207 14.0978 40.4441 13.8051 40.1418C13.5123 39.8395 13.3487 39.4352 13.3487 39.0144C13.3487 38.5936 13.5123 38.1893 13.8051 37.887C14.0978 37.5847 14.4966 37.4081 14.9172 37.3946H18.1568C17.7274 37.3946 17.3156 37.224 17.012 36.9204C16.7084 36.6168 16.5378 36.205 16.5378 35.7756C16.5378 35.3462 16.7084 34.9344 17.012 34.6308C17.3156 34.3272 17.7274 34.1566 18.1568 34.1566H15.8435C15.4229 34.1431 15.0241 33.9665 14.7314 33.6642C14.4387 33.3619 14.275 32.9576 14.275 32.5368C14.275 32.116 14.4387 31.7117 14.7314 31.4094C15.0241 31.1071 15.4229 30.9305 15.8435 30.917H34.5837C35.0042 30.9305 35.403 31.1071 35.6957 31.4094C35.9885 31.7117 36.1521 32.116 36.1521 32.5368C36.1521 32.9576 35.9885 33.3619 35.6957 33.6642C35.403 33.9665 35.0042 34.1431 34.5837 34.1566H36.897C37.3263 34.1566 37.7381 34.3272 38.0418 34.6308C38.3454 34.9344 38.5159 35.3462 38.5159 35.7756C38.5159 36.205 38.3454 36.6168 38.0418 36.9204C37.7381 37.224 37.3263 37.3946 36.897 37.3946Z" fill="#63FFFF"/>
<g opacity="0.1">
<path d="M134.042 82.9866C134.042 82.9866 138.783 71.3024 147.637 66.9683C151.362 65.1744 154.404 62.2199 156.306 58.5489C157.196 56.7995 157.924 54.9723 158.48 53.0901" stroke="#535461" stroke-width="0.336237" stroke-miterlimit="10"/>
<path d="M164.043 50.3263C163.12 51.4863 158.344 53.1843 158.344 53.1843C158.344 53.1843 158.919 48.1491 159.842 46.9891C160.052 46.6885 160.322 46.4341 160.635 46.2417C160.947 46.0493 161.296 45.9228 161.659 45.8701C162.022 45.8175 162.392 45.8397 162.747 45.9354C163.101 46.0312 163.432 46.1984 163.719 46.4268C164.007 46.6553 164.244 46.9401 164.417 47.2637C164.59 47.5873 164.695 47.943 164.726 48.3087C164.756 48.6745 164.712 49.0426 164.594 49.3904C164.477 49.7383 164.29 50.0585 164.045 50.3313L164.043 50.3263Z" fill="#63FFFF"/>
<path d="M162.404 59.5139C160.999 59.9863 156.069 58.8112 156.069 58.8112C156.069 58.8112 159.289 54.8974 160.694 54.425C161.035 54.2855 161.4 54.2172 161.768 54.2246C162.136 54.2319 162.498 54.3147 162.833 54.4676C163.167 54.6206 163.467 54.8406 163.713 55.1141C163.96 55.3875 164.147 55.7085 164.264 56.0573C164.381 56.406 164.426 56.7751 164.395 57.1417C164.363 57.5083 164.257 57.8646 164.083 58.1886C163.909 58.5126 163.67 58.7974 163.381 59.0253C163.092 59.2533 162.76 59.4196 162.404 59.5139Z" fill="#63FFFF"/>
<path d="M153.517 70.3761C152.066 70.0734 148.403 66.5715 148.403 66.5715C148.403 66.5715 153.159 64.8181 154.61 65.119C155.27 65.2996 155.837 65.7251 156.194 66.3089C156.552 66.8927 156.673 67.5908 156.534 68.261C156.395 68.9312 156.005 69.5231 155.445 69.9161C154.884 70.309 154.195 70.4735 153.517 70.3761Z" fill="#63FFFF"/>
<path d="M144.943 77.0789C143.462 77.0285 139.259 74.194 139.259 74.194C139.259 74.194 143.65 71.6622 145.132 71.7143C145.5 71.7028 145.866 71.767 146.208 71.9029C146.551 72.0388 146.861 72.2436 147.121 72.5045C147.381 72.7654 147.585 73.0769 147.719 73.4196C147.854 73.7624 147.917 74.1292 147.904 74.4972C147.891 74.8652 147.803 75.2267 147.644 75.5592C147.486 75.8917 147.261 76.1881 146.983 76.4302C146.706 76.6722 146.382 76.8547 146.031 76.9663C145.68 77.0779 145.31 77.1162 144.943 77.0789Z" fill="#63FFFF"/>
<path d="M151.48 55.5278C151.668 56.9989 154.879 60.9194 154.879 60.9194C154.879 60.9194 156.994 56.313 156.804 54.8436C156.673 54.1736 156.291 53.5788 155.737 53.1795C155.184 52.7803 154.499 52.6065 153.822 52.6936C153.144 52.7806 152.526 53.1218 152.091 53.6481C151.656 54.1744 151.437 54.8464 151.48 55.5278Z" fill="#63FFFF"/>
<path d="M141.551 63.495C142.171 64.8399 146.409 67.6223 146.409 67.6223C146.409 67.6223 147.046 62.5955 146.426 61.2489C146.1 60.6493 145.558 60.1961 144.91 59.9811C144.263 59.7661 143.557 59.8054 142.938 60.091C142.318 60.3765 141.83 60.8871 141.572 61.5191C141.314 62.1512 141.307 62.8575 141.551 63.495Z" fill="#63FFFF"/>
<path d="M132.963 72.5633C133.348 73.9956 137.053 77.4522 137.053 77.4522C137.053 77.4522 138.533 72.6053 138.15 71.1729C137.932 70.5237 137.475 69.982 136.872 69.6581C136.268 69.3343 135.564 69.2527 134.903 69.43C134.241 69.6073 133.673 70.0301 133.312 70.6123C132.952 71.1945 132.827 71.8922 132.963 72.5633Z" fill="#63FFFF"/>
<path opacity="0.25" d="M164.043 50.3263C163.12 51.4863 158.344 53.1843 158.344 53.1843C158.344 53.1843 158.919 48.1491 159.842 46.9891C160.052 46.6885 160.322 46.4341 160.635 46.2417C160.947 46.0493 161.296 45.9228 161.659 45.8701C162.022 45.8175 162.392 45.8397 162.747 45.9354C163.101 46.0312 163.432 46.1984 163.719 46.4268C164.007 46.6553 164.244 46.9401 164.417 47.2637C164.59 47.5873 164.695 47.943 164.726 48.3087C164.756 48.6745 164.712 49.0426 164.594 49.3904C164.477 49.7383 164.29 50.0585 164.045 50.3313L164.043 50.3263Z" fill="black"/>
<path opacity="0.25" d="M162.404 59.5139C160.999 59.9863 156.069 58.8112 156.069 58.8112C156.069 58.8112 159.289 54.8974 160.694 54.425C161.035 54.2855 161.4 54.2172 161.768 54.2246C162.136 54.2319 162.498 54.3147 162.833 54.4676C163.167 54.6206 163.467 54.8406 163.713 55.1141C163.96 55.3875 164.147 55.7085 164.264 56.0573C164.381 56.406 164.426 56.7751 164.395 57.1417C164.363 57.5083 164.257 57.8646 164.083 58.1886C163.909 58.5126 163.67 58.7974 163.381 59.0253C163.092 59.2533 162.76 59.4196 162.404 59.5139Z" fill="black"/>
<path opacity="0.25" d="M153.517 70.3761C152.066 70.0734 148.403 66.5715 148.403 66.5715C148.403 66.5715 153.159 64.8181 154.61 65.119C155.27 65.2996 155.837 65.7251 156.194 66.3089C156.552 66.8927 156.673 67.5908 156.534 68.261C156.395 68.9312 156.005 69.5231 155.445 69.9161C154.884 70.309 154.195 70.4735 153.517 70.3761Z" fill="black"/>
<path opacity="0.25" d="M144.943 77.0789C143.462 77.0285 139.259 74.194 139.259 74.194C139.259 74.194 143.65 71.6622 145.132 71.7143C145.5 71.7028 145.866 71.767 146.208 71.9029C146.551 72.0388 146.861 72.2436 147.121 72.5045C147.381 72.7654 147.585 73.0769 147.719 73.4196C147.854 73.7624 147.917 74.1292 147.904 74.4972C147.891 74.8652 147.803 75.2267 147.644 75.5592C147.486 75.8917 147.261 76.1881 146.983 76.4302C146.706 76.6722 146.382 76.8547 146.031 76.9663C145.68 77.0779 145.31 77.1162 144.943 77.0789Z" fill="black"/>
<path opacity="0.25" d="M151.48 55.5278C151.668 56.9989 154.879 60.9194 154.879 60.9194C154.879 60.9194 156.994 56.313 156.804 54.8436C156.673 54.1736 156.291 53.5788 155.737 53.1795C155.184 52.7803 154.499 52.6065 153.822 52.6936C153.144 52.7806 152.526 53.1218 152.091 53.6481C151.656 54.1744 151.437 54.8464 151.48 55.5278Z" fill="black"/>
<path opacity="0.25" d="M141.551 63.495C142.171 64.8399 146.409 67.6223 146.409 67.6223C146.409 67.6223 147.046 62.5955 146.426 61.2489C146.1 60.6493 145.558 60.1961 144.91 59.9811C144.263 59.7661 143.557 59.8054 142.938 60.091C142.318 60.3765 141.83 60.8871 141.572 61.5191C141.314 62.1512 141.307 62.8575 141.551 63.495Z" fill="black"/>
<path opacity="0.25" d="M132.963 72.5633C133.348 73.9956 137.053 77.4522 137.053 77.4522C137.053 77.4522 138.533 72.6053 138.15 71.1729C137.932 70.5237 137.475 69.982 136.872 69.6581C136.268 69.3343 135.564 69.2527 134.903 69.43C134.241 69.6073 133.673 70.0301 133.312 70.6123C132.952 71.1945 132.827 71.8922 132.963 72.5633Z" fill="black"/>
</g>
<g opacity="0.1">
<path d="M126.494 64.2935C126.494 64.2935 127.093 51.6981 134.007 44.6724C136.926 41.7448 138.817 37.9493 139.395 33.8557C139.653 31.9084 139.732 29.9416 139.631 27.9799" stroke="#535461" stroke-width="0.336237" stroke-miterlimit="10"/>
<path d="M143.966 23.5248C143.481 24.9269 139.537 28.1077 139.537 28.1077C139.537 28.1077 138.41 23.1667 138.894 21.7663C139.16 21.1369 139.655 20.6321 140.278 20.3542C140.902 20.0763 141.609 20.0461 142.254 20.2699C142.899 20.4936 143.435 20.9545 143.753 21.559C144.071 22.1634 144.148 22.8662 143.966 23.5248Z" fill="#63FFFF"/>
<path d="M145.468 32.7377C144.291 33.6489 139.258 34.1768 139.258 34.1768C139.258 34.1768 140.998 29.4157 142.166 28.5045C142.731 28.1197 143.421 27.9643 144.096 28.0699C144.771 28.1756 145.381 28.5343 145.801 29.0732C146.222 29.6121 146.421 30.2908 146.359 30.9714C146.297 31.652 145.979 32.2836 145.468 32.7377Z" fill="#63FFFF"/>
<path d="M140.687 45.9316C139.217 46.1283 134.599 44.0386 134.599 44.0386C134.599 44.0386 138.504 40.8074 139.979 40.6107C140.66 40.564 141.334 40.7785 141.864 41.2106C142.393 41.6427 142.738 42.26 142.829 42.9371C142.919 43.6143 142.749 44.3006 142.352 44.8568C141.955 45.4129 141.361 45.7972 140.692 45.9316H140.687Z" fill="#63FFFF"/>
<path d="M134.819 55.0991C133.405 55.543 128.501 54.2585 128.501 54.2585C128.501 54.2585 131.803 50.4153 133.219 49.9732C133.562 49.8389 133.93 49.7768 134.299 49.7907C134.668 49.8046 135.029 49.8943 135.362 50.054C135.695 50.2138 135.991 50.4403 136.232 50.7194C136.474 50.9985 136.655 51.3243 136.765 51.6765C136.875 52.0287 136.911 52.3998 136.872 52.7667C136.832 53.1336 136.718 53.4884 136.535 53.8091C136.353 54.1298 136.106 54.4095 135.811 54.6309C135.516 54.8522 135.178 55.0105 134.819 55.0958V55.0991Z" fill="#63FFFF"/>
<path d="M133.839 32.5998C134.512 33.9246 138.836 36.559 138.836 36.559C138.836 36.559 139.301 31.5155 138.635 30.189C138.289 29.6003 137.732 29.1652 137.078 28.972C136.423 28.7788 135.719 28.842 135.108 29.1487C134.498 29.4553 134.028 29.9826 133.792 30.6235C133.556 31.2643 133.573 31.9709 133.839 32.5998Z" fill="#63FFFF"/>
<path d="M127.114 43.4098C128.147 44.474 133.066 45.6929 133.066 45.6929C133.066 45.6929 132.002 40.7368 130.969 39.6726C130.463 39.2123 129.801 38.9621 129.117 38.973C128.433 38.9839 127.778 39.255 127.287 39.7313C126.796 40.2075 126.505 40.853 126.473 41.5363C126.44 42.2197 126.67 42.8897 127.114 43.4098Z" fill="#63FFFF"/>
<path d="M122.02 54.8116C122.861 56.0355 127.501 58.0681 127.501 58.0681C127.501 58.0681 127.287 53.0044 126.452 51.7805C126.029 51.2472 125.42 50.8939 124.748 50.7917C124.075 50.6895 123.389 50.846 122.827 51.2297C122.265 51.6134 121.869 52.1957 121.72 52.8594C121.57 53.5231 121.677 54.2189 122.02 54.8066V54.8116Z" fill="#63FFFF"/>
</g>
<path opacity="0.1" d="M72.4607 14.3741C72.4607 14.3741 68.4544 14.1337 68.9302 16.9413C68.9058 17.0837 68.9272 17.2302 68.9912 17.3598C69.0552 17.4894 69.1586 17.5953 69.2866 17.6625C69.2866 17.6625 69.2866 17.454 69.6968 17.5247C69.8405 17.5497 69.9867 17.557 70.1322 17.5465C70.3291 17.5329 70.5161 17.4556 70.6652 17.3263C70.6652 17.3263 71.7916 16.8606 72.2287 15.0197C72.2287 15.0197 72.5531 14.6179 72.5397 14.5153L71.8672 14.8045C71.8672 14.8045 72.0975 15.292 71.916 15.6972C71.916 15.6972 71.8941 14.8213 71.7647 14.8415C71.7378 14.8415 71.4133 15.0096 71.4133 15.0096C71.4133 15.0096 71.8117 15.8603 71.5108 16.4773C71.5108 16.4773 71.6251 15.4299 71.2889 15.0718L70.8131 15.3492C70.8131 15.3492 71.2771 16.2268 70.9627 16.943C70.9627 16.943 71.0434 15.8452 70.7139 15.4165L70.2819 15.7527C70.2819 15.7527 70.719 16.6185 70.45 17.212C70.45 17.212 70.4164 15.9326 70.186 15.8368C70.0229 15.9749 69.8773 16.1324 69.7523 16.3058C69.7523 16.3058 70.0499 16.9346 69.8649 17.2658C69.8649 17.2658 69.7523 16.4134 69.6581 16.41C69.6581 16.41 69.2816 16.9749 69.2429 17.3616C69.261 17.0028 69.3729 16.655 69.5674 16.3529C69.3503 16.394 69.15 16.4974 68.9907 16.6504C68.9907 16.6504 69.0496 16.252 69.6632 16.2167C69.6632 16.2167 69.9742 15.788 70.0566 15.7628C70.0566 15.7628 69.4497 15.7107 69.0832 15.8754C69.0832 15.8754 69.406 15.4988 70.1675 15.6686L70.5946 15.3223C70.5946 15.3223 69.796 15.213 69.4564 15.3324C69.4564 15.3324 69.8464 14.9962 70.7089 15.2433L71.1729 14.9659C70.816 14.8869 70.4503 14.8552 70.0852 14.8718C70.0852 14.8718 70.5139 14.6414 71.3091 14.8902L71.6453 14.7423C71.6453 14.7423 71.1409 14.6448 70.9997 14.628C70.8585 14.6112 70.8467 14.5725 70.8467 14.5725C71.1625 14.5198 71.4867 14.5559 71.7832 14.6767C71.7832 14.6767 72.4741 14.4195 72.4607 14.3741Z" fill="#63FFFF"/>
<path opacity="0.1" d="M61.9399 28.0371C61.9399 28.0371 60.5714 31.8114 63.3975 32.156C63.5274 32.2196 63.6741 32.2406 63.8166 32.2158C63.9591 32.191 64.0902 32.1219 64.191 32.0182C64.191 32.0182 63.9926 31.9526 64.1759 31.5861C64.2383 31.4549 64.2846 31.3166 64.3137 31.1742C64.3568 30.9818 64.3361 30.7806 64.2549 30.6009C64.2549 30.6009 64.1288 29.3888 62.488 28.4473C62.488 28.4473 62.1938 28.022 62.0912 28.0052L62.1769 28.7348C62.1769 28.7348 62.7099 28.6524 63.0478 28.9416C63.0478 28.9416 62.2072 28.7146 62.1837 28.8441C62.1837 28.871 62.2459 29.2291 62.2459 29.2291C62.2459 29.2291 63.1739 29.0895 63.6816 29.5519C63.6816 29.5519 62.7099 29.1467 62.2711 29.3652L62.4022 29.9015C62.4022 29.9015 63.3756 29.7048 63.9724 30.2109C63.9724 30.2109 62.9419 29.8208 62.4375 30.0159L62.6376 30.5202C62.6376 30.5202 63.5908 30.3521 64.0851 30.7707C64.0851 30.7707 62.8494 30.4345 62.6914 30.6345C62.7775 30.8306 62.8877 31.0153 63.0192 31.1843C63.0192 31.1843 63.7051 31.0767 63.9708 31.3524C63.9708 31.3524 63.1218 31.2196 63.0915 31.3087C63.0915 31.3087 63.5253 31.8299 63.885 31.9812C63.5477 31.8623 63.2474 31.6571 63.0142 31.386C62.9937 31.6031 63.0364 31.8214 63.1369 32.0148C63.1369 32.0148 62.7721 31.8467 62.9116 31.2515C62.9116 31.2515 62.5888 30.8312 62.5872 30.7472C62.5872 30.7472 62.3669 31.3154 62.419 31.7139C62.419 31.7139 62.15 31.2969 62.53 30.6144L62.3182 30.11C62.3182 30.11 61.9819 30.8447 62.0055 31.2028C62.0055 31.2028 61.797 30.7354 62.2744 29.9772L62.14 29.4543C61.9644 29.7721 61.8305 30.1111 61.7415 30.4631C61.7415 30.4631 61.6423 29.9856 62.108 29.2963L62.0593 28.9349C62.0593 28.9349 61.8239 29.3854 61.7667 29.5216C61.7096 29.6578 61.6692 29.6527 61.6692 29.6527C61.709 29.3348 61.8359 29.034 62.0357 28.7836C62.0357 28.7836 61.987 28.0388 61.9399 28.0371Z" fill="#63FFFF"/>
<path opacity="0.1" d="M88.5092 24.858C88.5092 24.858 87.1391 28.6306 89.9668 28.9752C90.0963 29.0389 90.2426 29.06 90.3848 29.0356C90.5271 29.0111 90.6579 28.9423 90.7587 28.839C90.7587 28.839 90.562 28.7735 90.7435 28.4053C90.8082 28.2743 90.8567 28.136 90.8881 27.9934C90.9315 27.8014 90.9102 27.6004 90.8276 27.4218C90.8276 27.4218 90.7015 26.2097 89.0607 25.2665C89.0607 25.2665 88.7681 24.8412 88.6656 24.8244L88.7496 25.5557C88.7496 25.5557 89.2843 25.4716 89.6205 25.7608C89.6205 25.7608 88.7799 25.5338 88.7581 25.6649C88.7581 25.6902 88.8203 26.0499 88.8203 26.0499C88.8203 26.0499 89.7483 25.9087 90.2543 26.3727C90.2543 26.3727 89.2843 25.9659 88.8438 26.1861L88.9749 26.7207C88.9749 26.7207 89.9483 26.524 90.5468 27.0301C90.5468 27.0301 89.5163 26.64 89.0119 26.8367L89.212 27.3411C89.212 27.3411 90.1652 27.173 90.6595 27.5916C90.6595 27.5916 89.4238 27.2553 89.2658 27.4537C89.3519 27.6495 89.4614 27.8341 89.5919 28.0035C89.5919 28.0035 90.2795 27.8959 90.5452 28.1716C90.5452 28.1716 89.6945 28.0388 89.6659 28.1262C89.6659 28.1262 90.0996 28.6474 90.4594 28.7987C90.1216 28.6791 89.8208 28.4734 89.5869 28.2019C89.5646 28.4217 89.6073 28.6432 89.7096 28.839C89.7096 28.839 89.3431 28.6709 89.4826 28.0741C89.4826 28.0741 89.1615 27.6555 89.1599 27.5697C89.1599 27.5697 88.9379 28.1363 88.9917 28.5364C88.9917 28.5364 88.7228 28.1178 89.1044 27.4369L88.8909 26.9326C88.8909 26.9326 88.5546 27.6672 88.5799 28.027C88.5799 28.027 88.3714 27.558 88.8488 26.7997L88.7143 26.2769C88.5384 26.5945 88.4045 26.9335 88.3159 27.2856C88.3159 27.2856 88.215 26.8098 88.6807 26.1189L88.632 25.7591C88.632 25.7591 88.3966 26.2097 88.3411 26.3441C88.2856 26.4786 88.2436 26.477 88.2436 26.477C88.2825 26.1588 88.4094 25.8577 88.6101 25.6078C88.6101 25.6078 88.5546 24.858 88.5092 24.858Z" fill="#63FFFF"/>
<path opacity="0.1" d="M45.0961 20.1305C45.0961 20.1305 43.7259 23.9048 46.5537 24.2477C46.683 24.3119 46.8295 24.3334 46.9718 24.3089C47.1142 24.2844 47.245 24.2153 47.3455 24.1115C47.3455 24.1115 47.1488 24.046 47.3304 23.6795C47.3943 23.5482 47.4428 23.41 47.475 23.2676C47.5175 23.075 47.4962 22.8738 47.4144 22.6943C47.4144 22.6943 47.2884 21.4822 45.6475 20.539C45.6475 20.539 45.355 20.1154 45.2524 20.0986L45.3365 20.8282C45.3365 20.8282 45.8694 20.7458 46.2074 21.035C46.2074 21.035 45.3668 20.8063 45.3449 20.9375C45.3449 20.9644 45.4071 21.3225 45.4071 21.3225C45.4071 21.3225 46.3351 21.1829 46.8412 21.6452C46.8412 21.6452 45.8694 21.2384 45.4306 21.4586L45.5618 21.9949C45.5618 21.9949 46.5352 21.7982 47.132 22.3043C47.132 22.3043 46.1031 21.9142 45.5988 22.1093L45.7988 22.6136C45.7988 22.6136 46.7521 22.4455 47.2463 22.8641C47.2463 22.8641 46.009 22.5279 45.8526 22.7262C45.9386 22.9226 46.0482 23.1077 46.1788 23.2777C46.1788 23.2777 46.8664 23.1684 47.1303 23.4458C47.1303 23.4458 46.2813 23.313 46.2511 23.4021C46.2511 23.4021 46.6865 23.9216 47.0463 24.0746C46.7081 23.9557 46.4071 23.7499 46.1737 23.4777C46.1515 23.6976 46.1941 23.9191 46.2965 24.1149C46.2965 24.1149 45.93 23.9468 46.0695 23.3516C46.0695 23.3516 45.7467 22.9314 45.7467 22.8473C45.7467 22.8473 45.5248 23.4155 45.5786 23.814C45.5786 23.814 45.3096 23.397 45.6895 22.7145L45.4777 22.2101C45.4777 22.2101 45.1415 22.9465 45.165 23.3046C45.165 23.3046 44.9566 22.8372 45.434 22.079L45.3012 21.5545C45.1253 21.872 44.9913 22.2111 44.9028 22.5632C44.9028 22.5632 44.8019 22.0874 45.2676 21.3964L45.2188 21.0367C45.2188 21.0367 44.9835 21.4872 44.928 21.6234C44.8725 21.7596 44.8305 21.7545 44.8305 21.7545C44.8692 21.4366 44.9955 21.1357 45.1953 20.8854C45.1953 20.8854 45.1482 20.1322 45.0961 20.1305Z" fill="#63FFFF"/>
<path opacity="0.1" d="M87.1863 45.7316C87.1863 45.7316 88.2437 49.5983 90.7521 48.2534C90.8946 48.2307 91.0263 48.1635 91.1284 48.0614C91.2305 47.9594 91.2976 47.8277 91.3203 47.6851C91.3203 47.6851 91.1219 47.744 91.0581 47.3388C91.0352 47.195 90.9951 47.0544 90.9387 46.9202C90.8627 46.7386 90.73 46.5864 90.5604 46.4864C90.5604 46.4864 89.7585 45.5702 87.8705 45.745C87.8705 45.745 87.3863 45.5668 87.2922 45.6122L87.7831 46.1603C87.7831 46.1603 88.1698 45.7854 88.6119 45.824C88.6119 45.824 87.7898 46.125 87.852 46.241C87.8638 46.2645 88.1244 46.5201 88.1244 46.5201C88.1244 46.5201 88.7969 45.8711 89.4828 45.9569C89.4828 45.9569 88.4556 46.1855 88.2219 46.6176L88.6388 46.9807C88.6388 46.9807 89.3214 46.2578 90.0998 46.3267C90.0998 46.3267 89.0339 46.6024 88.7347 47.053L89.1919 47.3539C89.1919 47.3539 89.8644 46.663 90.5184 46.7235C90.5184 46.7235 89.3197 47.1673 89.3012 47.4144C89.4849 47.5252 89.6814 47.6133 89.8863 47.6767C89.8863 47.6767 90.3906 47.1925 90.7571 47.2615C90.7571 47.2615 89.9871 47.6414 90.014 47.7322C90.014 47.7322 90.668 47.9003 91.048 47.8196C90.7034 47.9171 90.3393 47.9223 89.9922 47.8347C90.1002 48.0271 90.2621 48.1836 90.4579 48.2853C90.4579 48.2853 90.0611 48.3576 89.8325 47.791C89.8325 47.791 89.3281 47.6347 89.276 47.5641C89.276 47.5641 89.4223 48.1542 89.6963 48.4501C89.6963 48.4501 89.2356 48.2651 89.1533 47.4884L88.6909 47.2009C88.6909 47.2009 88.8422 47.9928 89.0658 48.2752C89.0658 48.2752 88.6254 48.0129 88.5783 47.1186L88.1664 46.7689C88.2074 47.1317 88.2949 47.4876 88.427 47.828C88.427 47.828 88.0706 47.4918 88.0538 46.663L87.805 46.3973C87.805 46.3973 87.8722 46.9017 87.9058 47.0446C87.9395 47.1875 87.9058 47.2127 87.9058 47.2127C87.754 46.9304 87.6835 46.6114 87.7024 46.2914C87.7024 46.2914 87.2249 45.7047 87.1863 45.7316Z" fill="#63FFFF"/>
<path d="M137.099 67.5433C137.466 67.9671 137.87 68.3565 138.308 68.7066L141.583 71.4974C142.166 71.9934 142.759 72.5061 143.499 72.7398C143.937 72.8774 144.4 72.9127 144.854 72.843C145.307 72.7734 145.739 72.6006 146.115 72.338L146.06 72.3195L146.115 72.2825C145.562 72.1043 144.995 71.9194 144.54 71.5613C144.352 71.4208 144.194 71.2444 144.075 71.0424C143.957 70.8403 143.879 70.6167 143.847 70.3845C143.847 70.3609 143.847 70.3391 143.847 70.3155C143.848 70.2518 143.855 70.1883 143.866 70.1256C144.571 70.0654 145.25 69.8265 145.838 69.4312L145.781 69.4111L145.838 69.3758C144.093 68.8159 142.884 67.1784 142.336 65.4451C141.788 63.7118 141.786 61.8659 141.727 60.0519C141.668 58.2379 141.534 56.3735 140.75 54.7326C140.456 54.1173 140.078 53.5323 139.935 52.8665C139.896 52.6689 139.877 52.4678 139.88 52.2663C139.891 51.6191 140.08 50.9685 140.253 50.3363C140.638 48.9246 140.945 47.4929 141.174 46.0476C141.264 45.5339 141.314 45.014 141.324 44.4925C141.34 43.9836 141.258 43.4763 141.083 42.998C140.313 40.9974 137.637 40.0542 137.228 37.9544C137.18 37.6718 137.16 37.3852 137.168 37.0987C137.168 36.9407 137.168 36.7843 137.168 36.628C137.168 36.4716 137.168 36.2917 137.154 36.1371C137.038 34.6593 136.124 33.3766 135.241 32.1779C134.179 30.7354 133.056 29.2358 131.423 28.4675C130.156 27.8673 128.461 27.6689 126.95 27.8034C126.271 27.2183 125.528 26.7134 124.734 26.2988C123.579 25.6566 122.38 25.0244 121.101 24.8832C119.478 24.705 117.875 25.327 116.247 25.4313C114.035 25.5742 111.863 24.7588 109.65 24.5907C107.438 24.4226 104.891 25.1673 103.902 27.3949C103.671 27.9358 103.53 28.5112 103.485 29.0979C103.475 29.2106 103.468 29.3215 103.463 29.4342V29.4459C103.447 29.9008 103.46 30.3562 103.502 30.8094V30.8615C103.502 30.9523 103.519 31.0431 103.529 31.1339C103.529 31.1607 103.529 31.186 103.537 31.2129C103.537 31.2969 103.556 31.381 103.566 31.465L103.576 31.5441C103.59 31.65 103.605 31.7559 103.618 31.8618C103.644 32.0799 103.69 32.295 103.758 32.504C103.799 32.6248 103.859 32.7383 103.936 32.8403C104.176 33.1462 104.538 33.237 104.911 33.2942L105.205 33.3362C105.175 33.3967 105.143 33.4572 105.114 33.5195C104.447 34.9258 104.103 36.4634 104.106 38.02C104.106 43.309 108.021 47.6935 113.137 48.4904L113.445 48.8737C115.331 51.2375 117.698 54.393 118.824 56.6643C117.523 58.2799 116 61.1447 115.566 65.9495L114.922 67.4525C113.572 69.3942 113.224 72.1951 113.572 74.8009C113.192 76.2098 112.759 77.9801 112.458 79.4444C110.22 78.9484 102.583 77.7212 100.777 76.5292L95.4812 74.0343C95.4812 74.0343 88.5883 69.2194 84.8797 70.8266C83.4624 69.0849 81.3239 67.2608 80.4027 66.5715C78.8223 65.3863 74.8917 60.7563 74.8917 60.7563L68.7336 52.5824C68.7167 51.6359 68.6159 50.8272 68.357 50.4792C67.6307 49.5075 63.7858 47.3506 63.0175 47.8162C62.2492 48.2819 61.607 46.8075 61.607 46.8075L61.5482 46.7756C61.4036 46.6915 60.9934 46.4595 60.4235 46.1536C60.3935 45.4712 60.4103 44.7876 60.4739 44.1075C60.4857 43.9932 60.5008 43.8789 60.5176 43.7713C62.5589 43.6976 64.5203 42.9591 66.1032 41.6681C67.6861 40.3771 68.804 38.6043 69.2867 36.6196C69.3136 36.5136 69.3321 36.4044 69.3539 36.2968C69.6295 36.3608 69.9169 36.353 70.1886 36.2741C70.4603 36.1952 70.7072 36.0479 70.9056 35.8462C71.4436 35.2679 71.4672 34.3785 71.2957 33.6119C71.1242 32.8453 70.7913 32.1106 70.7073 31.3272C70.6013 30.2596 70.9779 29.1416 70.6316 28.1329C70.3408 27.2722 69.5741 26.6468 68.7571 26.2382C67.94 25.8297 67.0456 25.591 66.2101 25.2194C65.4132 24.8664 64.6718 24.3923 63.8447 24.1132C62.7721 23.7518 61.6188 23.7383 60.4823 23.7652C59.7695 23.4777 59.0432 23.2037 58.2799 23.118C57.4394 23.0221 56.5147 23.1852 55.8742 23.745C55.3698 24.1922 54.9596 24.9101 54.2754 24.9336C53.9391 24.9454 53.6365 24.779 53.3373 24.6361C52.4883 24.2292 51.414 23.9989 50.6474 24.5386C50.0321 24.9689 49.8068 25.7608 49.7009 26.4988C49.595 27.2369 49.5765 28.0119 49.22 28.6726C48.9998 29.0794 48.6653 29.4106 48.3879 29.7805C47.6857 30.7194 47.3547 31.8843 47.4582 33.0521V33.0857C47.4178 32.9176 47.3792 32.7612 47.3506 32.5965C47.3506 32.7209 47.3506 32.8436 47.3674 32.968C47.4405 33.5448 47.5659 34.1137 47.7423 34.6677L48.4383 37.1054C48.7913 38.3428 49.1528 39.5986 49.8253 40.6998C50.0876 41.1336 50.4046 41.532 50.7684 41.885C51.3415 42.4868 52.0748 42.912 52.8817 43.1106C53.1651 43.1742 53.4568 43.1918 53.7458 43.1627C53.7458 43.198 53.7374 43.2317 53.7307 43.267C53.6685 43.2552 53.6046 43.2417 53.5457 43.2333C53.2726 43.1764 52.99 43.1839 52.7203 43.2552C51.3921 43.7276 50.9887 45.165 50.871 45.7299C50.8441 45.8745 50.8357 45.9619 50.8357 45.9619C50.8357 45.9619 50.8575 46.046 50.8827 46.1889L50.871 46.2376C50.8441 46.3805 50.8357 46.4696 50.8357 46.4696C50.8357 46.4696 50.8575 46.5537 50.8827 46.6999L50.5364 46.7083L44.7447 47.4649C43.4216 47.3741 42.1624 47.3522 41.4883 47.5136C41.4312 47.5262 41.3751 47.5425 41.3202 47.5624C40.4796 47.8532 36.628 50.5112 33.1715 52.9573C33.1715 52.8901 33.1715 52.8245 33.1614 52.7606L32.1779 53.46C32.1779 53.5255 32.1779 53.5945 32.1779 53.6634C31.9324 53.8315 31.6887 54.0097 31.4533 54.1795C30.3958 54.9361 29.4359 55.6186 28.7214 56.1415C27.8505 56.7669 27.3109 57.1619 27.3109 57.1619C27.3109 57.1619 26.9914 57.2662 26.7796 57.7588C26.5073 58.3892 26.4131 59.6568 27.3966 62.1517C29.1484 66.5917 29.5317 69.5943 29.5317 69.5943C29.0564 69.6439 28.59 69.757 28.1447 69.9305C27.5378 70.1726 26.904 70.5828 26.6401 71.2755C26.4706 71.7592 26.4665 72.2854 26.6283 72.7717C27.4386 75.6466 40.8528 91.9709 40.8528 91.9709L41.0209 91.986C41.7089 92.0466 42.4008 92.0466 43.0888 91.986C43.7159 91.9204 44.3026 91.7708 44.5716 91.4548C44.5716 91.4548 47.5456 95.2727 51.9133 92.6719C51.883 96.1352 51.7956 98.6754 52.3454 99.9548C53.2011 101.942 53.2011 106.466 53.2011 106.466L54.0148 106.495C53.9711 106.663 53.9223 106.831 53.8702 106.999C53.4953 108.238 52.9422 109.736 52.3571 110.094C51.372 110.699 51.8393 121.102 51.8797 122C51.8797 122.035 51.8797 122.054 51.8797 122.054L51.8225 126.257V126.593C51.7004 126.429 51.5908 126.256 51.4947 126.075C51.4947 126.075 49.911 127.588 49.8824 130.783C49.8539 133.977 49.911 134.085 49.911 134.085C49.911 134.085 56.2995 133.837 57.4982 134.278C58.6969 134.718 68.7218 133.895 68.7218 133.895C68.7218 133.895 69.0933 132.93 68.0241 132.188C69.7288 132.065 71.5882 131.739 72.6776 130.949C75.0733 129.219 67.8442 127.871 67.3399 127.597C66.8355 127.323 64.3373 125.119 63.305 124.293C62.993 124.065 62.6242 123.928 62.2391 123.897L62.3686 120.129C63.9069 118.396 65.5729 108.838 65.5729 108.838C66.1176 108.384 66.3547 107.28 66.4522 106.606C66.6512 106.54 66.8252 106.414 66.9506 106.246C67.0759 106.078 67.1467 105.875 67.1532 105.666C68.9134 105.725 71.1276 105.711 71.5529 105.289C72.2792 104.57 72.1934 102.117 72.1934 102.117L71.1679 76.1526L71.1007 76.0534C71.2702 74.8649 71.2736 73.6586 71.1107 72.4691C73.414 73.1265 75.2061 73.5737 75.2061 73.5737C75.2061 73.5737 78.6727 74.2125 81.1054 74.7505C80.7072 75.1734 80.4065 75.6784 80.2244 76.2299C78.0389 82.4503 90.4343 82.1931 90.4343 82.1931L96.2865 84.8998L110.062 89.402C105.636 88.0957 100.579 86.5591 97.1372 85.505C96.7983 85.4014 96.4536 85.3177 96.1049 85.2545C92.9476 84.6829 89.6677 85.8329 87.657 88.3698C87.6334 88.4017 87.6116 88.4303 87.5864 88.4606C87.1049 89.087 86.8366 89.8511 86.8209 90.641C86.8051 91.4309 87.0428 92.2051 87.4989 92.8501C88.0251 93.5949 88.7296 94.5851 89.555 95.7367C87.8083 96.2646 84.9183 97.7356 86.6752 101.518C89.1095 106.762 95.6443 109.756 95.6443 109.756C95.6443 109.756 99.9162 110.983 101.024 112.337C101.335 112.717 102.537 113.559 104.109 114.574C105.118 115.642 105.908 116.34 106.377 116.494C108.25 117.111 111.896 120.072 114.462 122.293L114.077 127.599L114.052 127.918L113.894 127.783C113.894 127.783 112.759 130.137 109.47 130.926C108.811 131.074 108.227 131.455 107.824 131.998L107.813 132.013L107.715 132.155L107.641 132.099C106.969 133.046 106.656 134.424 109.195 134.804C113.167 135.396 117.601 134.55 117.601 134.55L121.561 130.889C122.002 131.259 122.518 131.527 123.074 131.674C126.035 132.346 134.35 135.564 134.35 135.564C134.35 134.661 141.699 123.048 141.699 123.048C151.618 104.272 140.831 90.2409 139.639 88.78L139.533 88.6522L139.441 87.0921L139.421 86.734C139.421 86.734 144.774 84.3669 142.722 83.2405C140.671 82.1141 139.528 76.699 137.597 74.4445C136.083 72.686 136.171 68.6041 136.011 65.1257C136.185 65.9846 136.557 66.7907 137.099 67.4794C137.111 67.4945 137.124 67.5063 137.136 67.5214L136.993 67.397C137.028 67.4508 137.062 67.4979 137.099 67.5433ZM71.141 66.1008C71.8303 66.8422 73.034 67.7904 73.8309 68.3923C72.876 67.9266 72.1329 67.5332 71.5596 67.2154C71.4251 66.8422 71.2839 66.469 71.141 66.1008ZM50.7499 48.5072C50.5852 49.0008 50.2852 49.4383 49.8841 49.7698L49.5479 48.3189C49.9884 48.3895 50.3986 48.4551 50.7499 48.5072ZM117.943 88.3698C118.076 88.084 118.214 87.8032 118.354 87.5292C118.943 87.3374 119.463 86.976 119.848 86.4902C120.141 87.5072 120.358 88.5445 120.497 89.5937C120.497 89.6424 120.497 89.6693 120.497 89.6693C120.49 90.0923 120.426 90.5124 120.307 90.9184C120.153 91.4094 119.87 91.8717 119.357 91.9272C119.144 91.949 118.093 91.6952 116.521 91.2665C116.066 91.142 115.565 91.0025 115.03 90.8512C115.869 90.7957 117.036 90.3233 117.943 88.3698ZM131.099 52.8968C130.784 52.3924 130.129 52.0696 129.327 51.8797C129.181 51.7822 128.954 51.6275 128.664 51.4173C127.252 50.3834 124.433 48.055 123.14 45.081C123.5 44.9805 123.852 44.8517 124.192 44.696C124.721 44.4539 125.219 44.1521 125.679 43.7965C125.833 43.6755 125.985 43.5494 126.129 43.4183C126.5 43.0841 126.837 42.7154 127.138 42.3171C127.257 42.149 127.373 41.9893 127.474 41.8127C127.639 41.554 127.788 41.2856 127.921 41.0091C128.227 40.3637 128.464 39.6874 128.626 38.9917C128.691 38.7126 128.748 38.4285 128.794 38.1427C128.839 37.8569 128.883 37.5694 128.915 37.2803C129.019 36.26 129.059 35.2341 129.034 34.2087C129.034 34.16 129.034 34.1095 129.034 34.0608C129.034 34.0423 129.034 34.0238 129.034 34.007C129.029 32.9676 128.917 31.9315 128.698 30.9153C128.774 30.9439 128.849 30.9725 128.922 31.0061C129.043 31.0656 129.159 31.136 129.268 31.2162C129.241 31.1776 129.211 31.1389 129.182 31.1002C129.67 31.4163 130.033 31.9089 130.359 32.3998C131.853 34.729 132.807 37.3629 133.152 40.1087C133.496 42.8544 133.222 45.6424 132.35 48.2685C132.104 48.9897 131.81 49.7076 131.744 50.4658C131.507 53.1742 134.098 55.2404 135.061 57.7857C135.544 59.0617 135.619 60.4756 135.683 61.8743C134.957 58.3321 132.302 54.8453 131.104 52.9035L131.099 52.8968Z" fill="url(#paint0_linear_1_241)"/>
<path d="M66.8355 106.453C66.8355 106.453 66.7094 108.554 65.9108 109.227C65.9108 109.227 64.2716 118.725 62.7586 120.448L62.5064 121.415L56.202 120.701L57.4629 112.295L58.6397 104.561L66.8355 106.453Z" fill="#FFC1C8"/>
<path opacity="0.03" d="M66.8355 106.453C66.8355 106.453 66.7094 108.554 65.9108 109.227C65.9108 109.227 64.2716 118.725 62.7586 120.448L62.5064 121.415L56.202 120.701L57.4629 112.295L58.6397 104.561L66.8355 106.453Z" fill="black"/>
<path d="M60.0418 120.566L62.7586 120.447L62.614 124.724L60.5344 126.117L56.7887 125.297L58.1555 119.581L60.0418 120.566Z" fill="#FF748F"/>
<path opacity="0.03" d="M60.0418 120.566L62.7586 120.447L62.614 124.724L60.5344 126.117L56.7887 125.297L58.1555 119.581L60.0418 120.566Z" fill="black"/>
<path d="M60.5344 124.396C60.5344 124.396 62.6678 123.767 63.6799 124.588C64.692 125.408 67.1532 127.595 67.6458 127.869C68.1384 128.143 75.2414 129.483 72.8961 131.205C70.5509 132.926 64.5289 132.435 64.5289 132.435C64.5289 132.435 60.5899 131.285 60.4806 131.232C60.3713 131.178 57.9588 130.001 57.8832 129.919C57.8075 129.836 58.5657 124.371 58.5657 124.371L60.5344 124.396Z" fill="#5D618C"/>
<path opacity="0.03" d="M60.5344 124.396C60.5344 124.396 62.6678 123.767 63.6799 124.588C64.692 125.408 67.1532 127.595 67.6458 127.869C68.1384 128.143 75.2414 129.483 72.8961 131.205C70.5509 132.926 64.5289 132.435 64.5289 132.435C64.5289 132.435 60.5899 131.285 60.4806 131.232C60.3713 131.178 57.9588 130.001 57.8832 129.919C57.8075 129.836 58.5657 124.371 58.5657 124.371L60.5344 124.396Z" fill="black"/>
<path d="M54.3527 67.5752L54.2266 75.3893L53.9408 92.0583L53.7727 92.2046C48.7712 96.5336 45.2407 91.9524 45.2407 91.9524C44.9751 92.2668 44.4001 92.4164 43.7814 92.4803C43.1047 92.5409 42.4239 92.5409 41.7472 92.4803L41.5791 92.4651C41.5791 92.4651 28.3784 76.2299 27.5798 73.3719C27.4214 72.8885 27.4256 72.3666 27.5916 71.8858C27.8522 71.2032 28.4759 70.7963 29.0727 70.5559C29.5106 70.3829 29.9697 70.2698 30.4379 70.2197C30.4379 70.2197 30.0596 67.2356 28.3364 62.8225C27.368 60.3427 27.4622 59.0835 27.7295 58.4514C27.9379 57.9622 28.2523 57.858 28.2523 57.858C28.2523 57.858 28.7836 57.4662 29.6393 56.8492C30.3504 56.3298 31.2869 55.6506 32.3292 54.8991L33.2959 54.2064C36.8617 51.6477 41.1588 48.635 42.038 48.3223C42.0929 48.3022 42.1491 48.2859 42.2061 48.2735C44.0101 47.8381 50.064 48.7426 50.064 48.7426L54.3527 67.5752Z" fill="#63FFFF"/>
<path opacity="0.1" d="M54.3527 67.5752L54.2266 75.3893C48.2466 73.6258 42.6869 61.9399 41.9539 61.0186C41.3269 60.2183 41.9708 51.3064 42.2078 48.2769C44.0117 47.8415 50.0657 48.7459 50.0657 48.7459L54.3527 67.5752Z" fill="black"/>
<path d="M122.987 52.3571C122.987 52.3571 118.322 54.7528 117.733 64.1674C117.733 64.1674 116.977 68.9588 116.556 69.7994C116.136 70.64 114.119 78.5836 114.371 79.5503C114.371 79.5503 113.951 80.517 112.396 80.0967C110.84 79.6764 102.435 78.3734 100.543 77.1126L95.3315 74.6328C95.3315 74.6328 85.1604 67.4457 83.0168 73.6241C80.8733 79.8024 93.0619 79.5536 93.0619 79.5536L98.82 82.2435L116.262 87.9982C116.262 87.9982 118.574 89.049 120.129 85.6866C121.124 83.5685 122.305 81.5431 123.659 79.6343C123.659 79.6343 127.19 69.7153 127.148 68.0342C127.106 66.353 130.931 62.3602 130.931 62.3602C130.931 62.3602 131.687 51.7687 125.467 51.9788L122.987 52.3571Z" fill="#FFC1C7"/>
<path opacity="0.03" d="M122.987 52.3571C122.987 52.3571 118.322 54.7528 117.733 64.1674C117.733 64.1674 116.977 68.9588 116.556 69.7994C116.136 70.64 114.119 78.5836 114.371 79.5503C114.371 79.5503 113.951 80.517 112.396 80.0967C110.84 79.6764 102.435 78.3734 100.543 77.1126L95.3315 74.6328C95.3315 74.6328 85.1604 67.4457 83.0168 73.6241C80.8733 79.8024 93.0619 79.5536 93.0619 79.5536L98.82 82.2435L116.262 87.9982C116.262 87.9982 118.574 89.049 120.129 85.6866C121.124 83.5685 122.305 81.5431 123.659 79.6343C123.659 79.6343 127.19 69.7153 127.148 68.0342C127.106 66.353 130.931 62.3602 130.931 62.3602C130.931 62.3602 131.687 51.7687 125.467 51.9788L122.987 52.3571Z" fill="black"/>
<path d="M73.6443 60.5344C73.8965 60.8286 75.0733 61.4355 75.0733 61.4355C75.0733 61.4355 78.94 66.0369 80.4951 67.2137C82.0502 68.3906 87.1358 72.8877 86.1069 74.5908C85.078 76.2938 83.9214 75.9139 83.9214 75.9139L74.8211 69.6094C74.8211 69.6094 71.6269 67.3197 70.9763 66.2269C70.3256 65.1341 69.5254 62.846 69.5254 62.846L73.6443 60.5344Z" fill="#FFC1C8"/>
<path opacity="0.03" d="M73.6443 60.5344C73.8965 60.8286 75.0733 61.4355 75.0733 61.4355C75.0733 61.4355 78.94 66.0369 80.4951 67.2137C82.0502 68.3906 87.1358 72.8877 86.1069 74.5908C85.078 76.2938 83.9214 75.9139 83.9214 75.9139L74.8211 69.6094C74.8211 69.6094 71.6269 67.3197 70.9763 66.2269C70.3256 65.1341 69.5254 62.846 69.5254 62.846L73.6443 60.5344Z" fill="black"/>
<path d="M68.5386 52.6749L75.0733 61.4372L69.1892 63.7287L66.7515 56.3936L68.5386 52.6749Z" fill="#DCE6F2"/>
<path opacity="0.03" d="M68.5386 52.6749L75.0733 61.4372L69.1892 63.7287L66.7515 56.3936L68.5386 52.6749Z" fill="black"/>
<path d="M70.2399 75.0144L71.4167 76.7377L72.4254 102.544C72.4254 102.544 72.5095 104.982 71.795 105.696C71.0805 106.411 65.2383 105.948 65.2383 105.948C65.2383 105.948 65.4485 79.6377 65.5325 79.1333C65.6166 78.629 70.2399 75.0144 70.2399 75.0144Z" fill="#575988"/>
<path opacity="0.1" d="M70.2399 75.0144L71.4167 76.7377L72.4254 102.544C72.4254 102.544 72.5095 104.982 71.795 105.696C71.0805 106.411 65.2383 105.948 65.2383 105.948C65.2383 105.948 65.4485 79.6377 65.5325 79.1333C65.6166 78.629 70.2399 75.0144 70.2399 75.0144Z" fill="black"/>
<path d="M62.3703 107.636C61.9876 108.577 61.5381 109.489 61.0254 110.366C61.0254 110.366 59.9326 116.602 59.4669 117.177C59.1307 117.597 58.976 120.734 58.9205 122.37C58.9003 122.962 58.8919 123.357 58.8919 123.357L52.4665 126.42L52.4379 122.372C52.4379 122.372 52.4379 122.353 52.4379 122.318C52.3975 121.425 51.9335 111.086 52.9069 110.484C53.4785 110.129 54.0232 108.635 54.3914 107.409C54.6722 106.463 54.8487 105.671 54.8487 105.671C54.8487 105.671 61.987 105.207 62.5821 105.972C62.8007 106.244 62.6494 106.906 62.3703 107.636Z" fill="#FFC1C8"/>
<path opacity="0.1" d="M62.3702 107.636C59.4752 107.576 55.8472 107.453 54.3812 107.401C54.662 106.454 54.8385 105.662 54.8385 105.662C54.8385 105.662 61.9768 105.198 62.572 105.963C62.8006 106.244 62.6493 106.907 62.3702 107.636Z" fill="black"/>
<path d="M53.9324 69.3825C53.9324 69.3825 51.957 79.8899 52.3353 86.6566C52.7136 93.4234 52.0411 98.4216 52.8817 100.4C53.7223 102.379 53.7223 106.873 53.7223 106.873C53.7223 106.873 65.1543 107.293 66.3312 107.125C67.508 106.957 67.466 106.074 67.466 106.074C67.466 106.074 66.6674 99.094 67.4239 96.9085C68.1805 94.723 68.0544 88.0402 68.0544 88.0402L71.2486 77.2807C71.2486 77.2807 72.2153 72.4473 70.1979 70.4719C68.1805 68.4965 53.9324 69.3825 53.9324 69.3825Z" fill="#575988"/>
<path d="M121.768 124.904L121.264 125.643L118.145 130.283L115.497 131.082L113.522 129.149L113.618 127.873L114.11 121.247C114.11 121.247 101.888 114.057 100.795 112.712C99.7026 111.367 95.4997 110.148 95.4997 110.148C95.4997 110.148 89.0691 107.164 86.6735 101.952C84.2778 96.7404 90.6663 95.9418 90.6663 95.9418L114.665 118.893L121.768 124.904Z" fill="#FFC1C7"/>
<path opacity="0.1" d="M121.272 125.642L118.154 130.282L115.506 131.08L113.53 129.147L113.626 127.871L115.8 129.735L119.877 124.986L121.272 125.642Z" fill="black"/>
<path d="M124.71 127.593L117.103 134.696C117.103 134.696 112.732 135.537 108.823 134.949C106.325 134.572 106.806 133.202 107.463 132.259L107.475 132.242C107.868 131.703 108.444 131.324 109.095 131.176C112.33 130.396 113.446 128.054 113.446 128.054L115.8 130.072L119.877 125.321L122.891 126.736L124.71 127.593Z" fill="#575988"/>
<path d="M124.71 127.674L117.103 134.781C117.103 134.781 112.732 135.621 108.823 135.033C106.325 134.656 106.638 133.286 107.295 132.343C108.051 132.942 108.958 133.32 109.916 133.434C112.059 133.644 115.296 133.434 115.296 133.434L122.891 126.822L124.71 127.674Z" fill="white"/>
<path d="M61.9046 42.539C61.2859 42.8483 61.0018 43.8033 60.8874 44.8927C60.6941 46.752 61.0068 48.9914 61.0068 48.9914C61.0068 48.9914 52.6009 46.6932 53.4986 46.2443C54.0148 45.9871 54.2888 44.1143 54.4283 42.5726C54.5326 41.4328 54.5628 40.4728 54.5628 40.4728C54.5628 40.4728 63.5857 41.6984 61.9046 42.539Z" fill="#FFC1C8"/>
<path d="M128.816 52.7387C128.816 52.7387 118.616 62.377 118.952 59.5761C118.999 59.1861 118.865 58.6464 118.599 58.0093C117.656 55.7363 115.048 52.2075 113.009 49.6269C111.513 47.7339 110.319 46.3502 110.319 46.3502C110.319 46.3502 122.987 35.7033 121.978 41.7556C121.768 43.1356 121.96 44.547 122.531 45.8207C123.794 48.793 126.591 51.1315 127.989 52.1638C128.493 52.5353 128.816 52.7387 128.816 52.7387Z" fill="#FFC1C7"/>
<path opacity="0.1" d="M120.578 43.6032C120.395 43.8301 119.715 44.627 119.514 44.8372C117.597 46.8327 117.342 49.7126 114.358 49.7126C113.908 49.7129 113.459 49.6843 113.013 49.6269C111.516 47.7339 110.323 46.3502 110.323 46.3502C110.323 46.3502 122.987 35.7033 121.978 41.7556C121.74 43.1913 120.045 42.3457 120.578 43.6032Z" fill="black"/>
<path d="M124.892 38.8404C124.892 40.9244 124.274 42.9616 123.117 44.6945C121.959 46.4274 120.314 47.7781 118.389 48.5757C116.463 49.3734 114.345 49.5822 112.301 49.1757C110.257 48.7692 108.379 47.7657 106.906 46.2921C105.432 44.8186 104.429 42.9411 104.022 40.8971C103.616 38.8532 103.825 36.7346 104.622 34.8094C105.42 32.8841 106.77 31.2386 108.503 30.081C110.236 28.9234 112.274 28.3058 114.357 28.3061C115.742 28.3008 117.115 28.5696 118.395 29.0971C119.676 29.6246 120.839 30.4004 121.818 31.3796C122.798 32.3589 123.573 33.5223 124.101 34.8028C124.628 36.0833 124.897 37.4555 124.892 38.8404Z" fill="#FFC1C7"/>
<path opacity="0.1" d="M128.816 52.7387C128.816 52.7387 118.616 62.377 118.952 59.5761C118.999 59.1861 118.865 58.6464 118.599 58.0093L120.074 54.5326C121.88 52.9502 124.197 52.0727 126.598 52.0612C127.035 52.0608 127.472 52.0906 127.904 52.1503L127.989 52.1638C128.493 52.5353 128.816 52.7387 128.816 52.7387Z" fill="black"/>
<path d="M140.808 123.348C140.808 123.348 133.578 134.892 133.578 135.789C133.578 135.789 125.396 132.595 122.483 131.923C119.569 131.25 116.822 125.142 116.822 125.142C116.822 125.142 109.089 117.856 106.063 116.847C103.495 115.992 91.1588 98.5897 87.4838 93.3394C87.0339 92.6968 86.7998 91.928 86.8156 91.1437C86.8313 90.3595 87.0959 89.6006 87.5712 88.9767L87.6401 88.8876C88.6127 87.664 89.9007 86.729 91.3653 86.1833C92.83 85.6376 94.4158 85.5019 95.9519 85.7908C96.2928 85.8535 96.6296 85.9366 96.9606 86.0396C102.253 87.6754 111.419 90.4864 116.042 91.7557C117.589 92.181 118.623 92.4282 118.833 92.413C119.337 92.3609 119.615 91.9087 119.768 91.4127C119.884 91.0092 119.947 90.592 119.954 90.172C119.954 90.172 119.954 90.1451 119.954 90.0963C119.812 89.0275 119.59 87.9709 119.288 86.9357C118.749 85.0864 117.814 82.916 116.262 81.8787C114.974 81.0196 113.951 79.1249 113.414 76.9226C112.693 73.9486 112.86 70.4097 114.468 68.093L116.024 64.4247L118.624 58.2883L120.074 54.8688C121.88 53.2864 124.197 52.4089 126.598 52.3975C127.035 52.3971 127.472 52.4268 127.904 52.4866C129.019 52.6412 129.982 52.9758 130.384 53.6348C131.617 55.6522 134.419 59.3508 134.979 63.0495C135.539 66.7481 134.868 72.8003 136.773 75.043C138.677 77.2857 139.799 82.6638 141.816 83.7852C143.834 84.9065 138.567 87.2585 138.567 87.2585L138.587 87.6132L138.677 89.165C138.677 89.165 138.714 89.207 138.782 89.2911C139.955 90.7436 150.558 104.689 140.808 123.348Z" fill="#FF6584"/>
<path d="M138.79 89.2911C136.581 89.7534 131.749 90.7604 129.594 91.2026L129.216 91.2799C129.09 91.3051 128.949 91.3287 128.796 91.3505C126.63 91.6481 121.933 91.5018 119.783 91.4144C119.899 91.0109 119.962 90.5937 119.969 90.1737C119.969 90.1737 119.969 90.1468 119.969 90.098C121.605 89.9921 125.482 89.6828 128.804 89.0002C129.075 88.9447 129.342 88.8859 129.603 88.8321C129.979 88.7447 130.346 88.6522 130.695 88.5547C133.674 87.7141 136.82 87.6032 138.597 87.62L138.688 89.1717C138.688 89.1717 138.715 89.207 138.79 89.2911Z" fill="#575988"/>
<path d="M129.586 88.8254V91.2026L129.207 91.2799C129.081 91.3051 128.94 91.3287 128.787 91.3505V89.0069C129.058 88.9447 129.325 88.8859 129.586 88.8254Z" fill="#FF6584"/>
<path opacity="0.1" d="M131.645 93.378C131.645 93.378 127.148 103.675 124.416 104.684C121.684 105.693 114.875 109.265 114.875 109.265C114.875 109.265 118.784 112.712 122.861 108.929C126.938 105.146 132.822 95.0592 131.645 93.378Z" fill="black"/>
<path opacity="0.1" d="M136.563 91.9944C136.563 91.9944 136.983 95.9032 136.394 96.6177C135.806 97.3322 136.563 91.9944 136.563 91.9944Z" fill="black"/>
<path opacity="0.1" d="M139 94.5548C139 94.5548 141.27 118.344 130.006 118.47C130.006 118.473 140.555 108.004 139 94.5548Z" fill="black"/>
<path opacity="0.1" d="M141.858 100.271C141.858 100.271 145.095 112.754 140.85 114.183C140.85 114.186 143.077 107.713 141.858 100.271Z" fill="black"/>
<path opacity="0.1" d="M121.726 97.0766C121.516 97.0766 112.984 98.5477 114.833 99.7245C116.683 100.901 121.726 97.0766 121.726 97.0766Z" fill="black"/>
<path opacity="0.1" d="M127.61 80.2261C127.61 80.2261 134.587 86.4045 133.242 87.0769L127.61 80.2261Z" fill="black"/>
<path opacity="0.1" d="M127.022 82.2015C127.022 82.2015 131.057 87.161 130.594 87.4552L127.022 82.2015Z" fill="black"/>
<path opacity="0.1" d="M135.638 81.4416C135.638 81.4416 137.487 83.7532 137.193 84.2576L135.638 81.4416Z" fill="black"/>
<path opacity="0.1" d="M137.487 80.2261C137.487 80.2261 140.135 82.2822 139.547 83.0841L137.487 80.2261Z" fill="black"/>
<path d="M122.777 55.1765C122.777 55.1765 131.393 55.8489 131.015 62.7838C130.636 69.7187 124.206 71.484 124.206 71.484L115.842 69.0883C115.842 69.0883 119.583 55.6388 122.777 55.1765Z" fill="#FFC1C7"/>
<path opacity="0.1" d="M96.9673 86.0396C102.26 87.6754 111.426 90.4864 116.049 91.7557C115.746 91.9101 115.414 91.9995 115.074 92.0183C114.735 92.0372 114.395 91.9849 114.077 91.865L96.6345 86.1103L95.9519 85.7908C96.2951 85.8533 96.6342 85.9364 96.9673 86.0396Z" fill="black"/>
<path opacity="0.1" d="M126.484 68.8983C125.665 69.9911 124.944 71.1679 124.971 71.9043C124.984 72.4338 124.635 73.7838 124.167 75.3826C122.963 79.3981 121.329 83.2717 119.292 86.9357C118.752 85.0864 117.817 82.916 116.266 81.8787C114.978 81.0196 113.954 79.1249 113.418 76.9226C113.826 75.3288 114.215 73.9889 114.374 73.6695C114.795 72.8289 115.551 68.0375 115.551 68.0375C115.622 66.8233 115.781 65.6159 116.027 64.4247C116.637 61.5112 117.674 59.5492 118.628 58.2883C119.778 56.7551 120.813 56.2272 120.813 56.2272L123.293 55.8489C126.151 55.7531 127.53 57.9269 128.194 60.3091C129.007 63.2697 128.326 66.437 126.484 68.8983Z" fill="black"/>
<path d="M120.297 55.5514C120.297 55.5514 115.632 57.9471 115.043 67.3617C115.043 67.3617 114.287 72.1531 113.867 72.9936C113.446 73.8342 111.429 81.7778 111.681 82.7445C111.681 82.7445 111.261 83.7112 109.706 83.2909C108.151 82.8706 99.7446 81.5677 97.8533 80.3068L92.6416 77.8271C92.6416 77.8271 82.4705 70.64 80.327 76.8183C78.1835 82.9967 90.372 82.7479 90.372 82.7479L96.1301 85.4378L113.572 91.1925C113.572 91.1925 115.884 92.2432 117.439 88.8808C117.827 88.0402 118.243 87.2417 118.648 86.5154C120.746 82.7782 122.427 78.8216 123.659 74.7169C124.135 73.1181 124.477 71.7681 124.463 71.2385C124.445 70.5021 125.168 69.3236 125.976 68.2325C127.825 65.7713 128.498 62.6039 127.674 59.6417C127.01 57.2594 125.625 55.0857 122.774 55.1832L120.297 55.5514Z" fill="#FFC1C7"/>
<path opacity="0.1" d="M61.9046 42.539C61.2859 42.8483 61.0018 43.8033 60.8875 44.8927C60.7782 44.8927 60.6689 44.8927 60.5596 44.8927C58.2994 44.8969 56.1167 44.0686 54.4283 42.5659C54.5326 41.4261 54.5628 40.4661 54.5628 40.4661C54.5628 40.4661 63.5858 41.6984 61.9046 42.539Z" fill="black"/>
<path d="M69.8061 35.3099C69.8061 37.1387 69.2638 38.9264 68.2478 40.447C67.2318 41.9676 65.7877 43.1527 64.0981 43.8526C62.4085 44.5524 60.5494 44.7355 58.7557 44.3787C56.9621 44.022 55.3145 43.1413 54.0214 41.8482C52.7282 40.555 51.8476 38.9075 51.4908 37.1138C51.134 35.3202 51.3171 33.461 52.017 31.7714C52.7168 30.0818 53.902 28.6377 55.4225 27.6217C56.9431 26.6057 58.7308 26.0634 60.5596 26.0634C63.0103 26.0687 65.3591 27.0446 67.092 28.7775C68.8249 30.5104 69.8008 32.8592 69.8061 35.3099Z" fill="#FFC1C8"/>
<path opacity="0.1" d="M72.9298 71.5226C72.9298 71.5226 68.0964 73.456 66.5833 74.1285C65.0703 74.8009 56.4122 73.2458 56.4122 73.2458C56.4122 73.2458 51.915 70.9762 52.2933 68.7066C52.6715 66.437 48.6787 59.0012 48.6787 59.0012C48.6787 59.0012 48.5526 52.4025 50.3179 51.1416C52.0831 49.8807 51.4107 47.2329 51.4107 47.2329C51.4107 47.2329 51.4191 47.1454 51.446 47.0025C51.5552 46.441 51.9503 45.012 53.26 44.543C53.5251 44.4717 53.8034 44.4642 54.072 44.5211C55.3278 44.7111 57.3906 45.6458 59.097 46.5083C60.5092 47.2228 61.6776 47.8868 61.945 48.0415L62.0021 48.0735C62.0021 48.0735 62.6326 49.5445 63.3891 49.0822C64.1456 48.6198 67.9283 50.7634 68.6428 51.73C69.3573 52.6967 68.8529 57.2359 68.7268 58.3707C68.6008 59.5055 69.4414 62.8679 70.366 64.7979C71.2907 66.7279 72.9298 71.5226 72.9298 71.5226Z" fill="black"/>
<path d="M72.9298 71.0183C72.9298 71.0183 68.0964 72.9516 66.5833 73.6241C65.0703 74.2966 56.4122 72.7415 56.4122 72.7415C56.4122 72.7415 51.915 70.4719 52.2933 68.2023C52.6715 65.9327 48.6787 58.4968 48.6787 58.4968C48.6787 58.4968 48.5526 51.8982 50.3179 50.6373C52.0831 49.3764 51.4107 46.7285 51.4107 46.7285C51.4107 46.7285 51.4191 46.6411 51.446 46.4982C51.5552 45.9367 51.9503 44.5077 53.26 44.0386C53.5251 43.9673 53.8034 43.9598 54.072 44.0168C55.3278 44.2067 57.3906 45.1415 59.097 46.0039C60.5092 46.7184 61.6776 47.3825 61.945 47.5372L62.0021 47.5691C62.0021 47.5691 62.6326 49.0401 63.3891 48.5778C64.1456 48.1155 67.9283 50.259 68.6428 51.2257C69.3573 52.1924 68.8529 56.7316 68.7268 57.8664C68.6008 59.0012 69.4414 62.3635 70.366 64.2935C71.2907 66.2235 72.9298 71.0183 72.9298 71.0183Z" fill="#DCE6F2"/>
<path d="M57.2814 64.5625C57.2814 64.5625 53.1339 71.2872 52.4614 71.6521L52.7136 74.0057C52.7136 74.0057 58.6263 72.7717 58.9911 71.1191C59.356 69.4665 59.1593 64.4785 59.1593 64.4785L57.2814 64.5625Z" fill="#575988"/>
<path opacity="0.2" d="M57.2814 64.5625C57.2814 64.5625 53.1339 71.2872 52.4614 71.6521L52.7136 74.0057C52.7136 74.0057 58.6263 72.7717 58.9911 71.1191C59.356 69.4665 59.1593 64.4785 59.1593 64.4785L57.2814 64.5625Z" fill="black"/>
<path opacity="0.1" d="M63.1167 55.9952C63.1167 55.9952 63.8514 58.833 65.008 59.7997C66.1647 60.7664 63.1167 55.9952 63.1167 55.9952Z" fill="black"/>
<path d="M55.9077 63.4765C56.0136 63.6664 59.5643 68.4998 63.3049 70.2853C67.0456 72.0707 75.3893 74.1738 75.3893 74.1738C75.3893 74.1738 82.156 75.4347 83.311 75.9172C84.466 76.3997 85.9387 74.236 78.6878 71.1477C71.4368 68.0594 70.0297 66.6926 70.0297 66.6926C70.0297 66.6926 63.7252 63.621 62.7165 62.108C61.7078 60.5949 55.9077 63.4765 55.9077 63.4765Z" fill="#FFC1C8"/>
<path opacity="0.1" d="M58.5556 86.9895C58.6817 86.9055 61.7078 83.6692 62.0861 85.0562C62.4644 86.4431 58.5556 86.9895 58.5556 86.9895Z" fill="black"/>
<path opacity="0.1" d="M60.3209 80.601C60.2789 80.7271 59.8586 84.2996 58.6397 84.7199L60.3209 80.601Z" fill="black"/>
<path opacity="0.1" d="M61.5817 81.5711C61.5817 81.5711 60.489 85.3958 59.102 85.6446L61.5817 81.5711Z" fill="black"/>
<path opacity="0.1" d="M56.0339 93.0418C56.0339 93.0418 57.8832 93.0838 58.1354 91.907L56.0339 93.0418Z" fill="black"/>
<path opacity="0.1" d="M58.5556 100.695C58.8078 100.737 62.7586 103.258 61.7499 103.763C60.7411 104.267 58.5556 100.695 58.5556 100.695Z" fill="black"/>
<path opacity="0.1" d="M58.9137 121.982V122.37C58.8936 122.962 58.8852 123.357 58.8852 123.357L52.4597 126.42L52.4311 122.372C52.4311 122.372 52.4311 122.353 52.4311 122.318V122.044L55.0033 122.126L58.9137 121.982Z" fill="black"/>
<path d="M60.1158 127.868L54.7562 129.919L52.3504 128.496L52.3756 126.549L52.4311 122.37L55.0033 122.452L58.9137 122.316V125.243L60.1158 127.868Z" fill="#FF748F"/>
<path opacity="0.1" d="M60.1107 127.869L54.7511 129.92L52.3453 128.498L52.3706 126.551C52.7196 127.009 53.1657 127.383 53.6767 127.648C54.1877 127.912 54.751 128.06 55.3261 128.081C55.3261 128.081 57.2124 125.727 58.3606 125.045C58.4422 124.996 58.5328 124.964 58.627 124.951C58.7213 124.939 58.8171 124.945 58.9087 124.971V125.245L60.1107 127.869Z" fill="black"/>
<path d="M55.3311 128.416C55.3311 128.416 53.1455 128.444 52.0494 126.365C52.0494 126.365 50.4909 127.869 50.4623 131.042C50.4338 134.214 50.4909 134.323 50.4909 134.323C50.4909 134.323 56.7802 134.078 57.9571 134.515C59.1339 134.952 69.0058 134.132 69.0058 134.132C69.0058 134.132 69.6615 132.408 66.6807 131.807C63.7 131.205 61.2387 128.032 61.1564 127.896C61.074 127.76 59.5155 124.702 58.3673 125.374C57.219 126.047 55.3311 128.416 55.3311 128.416Z" fill="#5D618C"/>
<path opacity="0.1" d="M61.1279 25.095L60.5008 25.0093L60.8925 24.9992L61.1279 25.095Z" fill="black"/>
<path opacity="0.1" d="M69.8061 35.3099C69.8065 36.0271 69.7235 36.7419 69.559 37.44C69.4187 37.4037 69.2844 37.3471 69.1606 37.2718C68.9807 37.1558 68.8008 36.9961 68.589 37.0146C68.4648 37.0341 68.3484 37.0877 68.2527 37.1693C67.2575 37.8972 66.5177 39.0942 65.3073 39.3262C65.4286 38.9719 65.4449 38.5901 65.3544 38.2268C65.0977 38.4849 64.7827 38.6776 64.4361 38.7888C64.0894 38.9 63.7211 38.9263 63.3622 38.8656C63.4496 38.6557 63.4598 38.4216 63.3907 38.2049C62.5384 38.6823 61.6509 39.0942 60.7362 39.4372C60.7042 39.2691 60.6739 39.1144 60.642 38.953C59.3542 39.5818 59.4551 41.7152 58.1673 42.344C57.4007 42.7189 56.318 42.4499 55.7884 43.1257C55.7683 43.1526 55.7498 43.1795 55.7313 43.2081C54.3552 42.3664 53.2233 41.1793 52.448 39.7648C51.6726 38.3503 51.2808 36.7576 51.3114 35.1448C51.342 33.532 51.794 31.9553 52.6225 30.5712C53.451 29.1872 54.6271 28.0439 56.0341 27.255C57.4411 26.4662 59.03 26.0591 60.643 26.0742C62.256 26.0893 63.837 26.5262 65.2289 27.3413C66.6209 28.1565 67.7754 29.3216 68.5777 30.721C69.3801 32.1203 69.8024 33.7052 69.8028 35.3183L69.8061 35.3099Z" fill="black"/>
<path d="M61.1278 24.7571C60.3511 24.436 59.5627 24.1132 58.7271 24.0174C57.8916 23.9216 56.9904 24.0846 56.36 24.6411C55.8556 25.0849 55.4606 25.7978 54.7881 25.8179C54.4603 25.8297 54.1576 25.665 53.8634 25.5221C53.0228 25.1186 51.9721 24.8899 51.2139 25.4245C50.6087 25.8532 50.3817 26.64 50.2825 27.3747C50.1833 28.1094 50.1598 28.8878 49.8101 29.535C49.5932 29.9385 49.2637 30.268 48.9914 30.6362C48.2991 31.5717 47.9738 32.7284 48.0768 33.8876C48.147 34.4608 48.2697 35.0264 48.4433 35.5772L49.1292 37.9998C49.4772 39.2304 49.832 40.4779 50.4943 41.5723C51.1567 42.6668 52.1755 43.6082 53.4196 43.8907C54.1694 44.0588 55.0773 43.9209 55.4976 43.277C55.6051 43.1089 55.6741 42.929 55.7918 42.7727C56.3129 42.1002 57.404 42.3675 58.1706 41.9926C59.4584 41.3639 59.3575 39.2304 60.6453 38.6017L60.7412 39.0842C61.6549 38.7407 62.5417 38.3294 63.3941 37.8535C63.4628 38.0701 63.4532 38.304 63.3672 38.5142C63.7259 38.5741 64.0937 38.5474 64.4399 38.4362C64.7862 38.3251 65.1008 38.1328 65.3577 37.8754C65.4483 38.2388 65.4319 38.6206 65.3106 38.9749C66.5211 38.7412 67.2608 37.5442 68.2561 36.8162C68.3523 36.7358 68.4685 36.683 68.5923 36.6633C68.8058 36.6448 68.984 36.8045 69.1639 36.9188C69.4755 37.108 69.842 37.1859 70.2035 37.1397C70.5651 37.0936 70.9003 36.9262 71.1544 36.6649C71.684 36.09 71.7075 35.2057 71.5377 34.4424C71.3679 33.6792 71.0334 32.9512 70.9611 32.1728C70.8552 31.112 71.225 30.0041 70.8854 28.9954C70.5979 28.1397 69.8448 27.5193 69.0361 27.1125C68.2275 26.7056 67.3549 26.4686 66.5295 26.1037C65.746 25.7524 65.0164 25.2816 64.2027 25.0042C63.0259 24.6024 61.7465 24.6344 60.5041 24.668" fill="#794F6A"/>
<path d="M61.2876 56.0725C61.2876 56.0725 62.6325 47.0227 51.1164 47.4699L45.3163 48.2416C45.3163 48.2416 50.8491 49.2368 52.1806 49.3831L52.3218 49.4033C53.5541 49.6286 57.8143 49.3478 61.2876 56.0725Z" fill="#63FFFF"/>
<path opacity="0.1" d="M53.9324 92.1625V92.0583C58.6548 87.9747 53.9324 92.1625 53.9324 92.1625Z" fill="black"/>
<path d="M43.773 92.4803C43.0963 92.5409 42.4155 92.5409 41.7388 92.4803L27.5916 71.8891C27.8522 71.2066 28.4759 70.7997 29.0727 70.5593L43.773 92.4803Z" fill="#575988"/>
<path d="M34.5988 70.4332L33.9263 71.2318C33.9263 71.2318 28.8256 62.7586 27.7295 58.4548C27.938 57.9655 28.2523 57.8613 28.2523 57.8613C28.2523 57.8613 28.7836 57.4696 29.6393 56.8526C29.9571 58.8767 31.0414 63.8262 34.5988 70.4332Z" fill="#575988"/>
<path d="M38.3394 67.824L36.9944 68.5805C33.3227 64.2834 33.01 57.0644 33.0436 54.1879L34.012 53.4919C34.1431 57.2695 38.3394 67.824 38.3394 67.824Z" fill="#575988"/>
<path opacity="0.1" d="M41.8699 67.0708C41.8279 67.6172 40.2728 73.1651 42.5424 74.0898C44.812 75.0144 41.8699 67.0708 41.8699 67.0708Z" fill="black"/>
<path opacity="0.1" d="M46.7454 76.6116C46.8294 76.9058 47.586 86.4885 49.2251 85.732C50.8643 84.9755 49.9816 74.0478 49.9816 74.0478L46.7454 76.6116Z" fill="black"/>
<path opacity="0.1" d="M124.892 38.8404C124.895 41.5615 123.842 44.1776 121.953 46.1367C121.184 46.2997 120.391 46.3134 119.616 46.1771C119.22 46.1269 118.844 45.9758 118.523 45.7383C118.215 45.4535 117.973 45.1038 117.816 44.7145C117.202 43.3947 116.888 41.8699 116.027 40.7401C115.166 39.6104 113.419 39.1144 112.589 40.2728C112.137 40.9015 112.061 41.8682 111.457 42.3036C110.733 42.8282 109.776 42.2112 109.213 41.4631C107.549 39.2775 108.119 34.9804 104.945 34.3769L104.817 34.355C105.835 32.1847 107.562 30.4263 109.714 29.3703C111.866 28.3142 114.314 28.0235 116.653 28.5462C118.993 29.0689 121.084 30.3738 122.582 32.2453C124.08 34.1169 124.894 36.4433 124.892 38.8404Z" fill="black"/>
<path d="M105.113 34.2205C104.598 34.1213 104.001 34.1348 103.657 33.6909C103.453 33.4287 103.395 33.0655 103.346 32.7209C103.139 31.2314 103.026 29.6326 103.62 28.2826C104.593 26.0684 107.098 25.3287 109.275 25.4935C111.452 25.6582 113.589 26.4702 115.766 26.3341C117.367 26.2298 118.945 25.6112 120.541 25.7877C121.803 25.9289 122.98 26.556 124.115 27.1965C125.178 27.795 126.264 28.4389 127.017 29.4779C128.123 30.9994 128.332 33.1008 128.362 35.0729C128.399 37.3879 128.236 39.7919 127.264 41.8295C125.855 44.7867 122.713 46.5469 119.784 46.0174C119.389 45.9672 119.012 45.8161 118.692 45.5786C118.384 45.2933 118.143 44.9437 117.986 44.5547C117.37 43.2333 117.056 41.7102 116.195 40.5787C115.334 39.4473 113.588 38.9547 112.757 40.1131C112.305 40.7401 112.229 41.7085 111.626 42.1439C110.901 42.6668 109.944 42.0498 109.381 41.3033C107.717 39.1161 108.287 34.8224 105.113 34.2205Z" fill="#945B79"/>
<path d="M130.697 29.3333C132.299 30.0982 133.41 31.5878 134.454 33.0218C135.324 34.2138 136.223 35.4881 136.337 36.9575C136.383 37.5593 136.294 38.1713 136.408 38.7631C136.81 40.8528 139.434 41.7892 140.201 43.7797C140.557 44.7178 140.444 45.7618 140.288 46.7537C140.063 48.1886 139.761 49.6101 139.382 51.0122C139.155 51.8528 138.898 52.727 139.071 53.581C139.204 54.2434 139.575 54.8251 139.871 55.4303C140.643 57.0628 140.776 58.9137 140.834 60.7177C140.893 62.5216 140.892 64.3574 141.431 66.0789C141.971 67.8005 143.161 69.4279 144.878 69.9843C144.301 70.3774 143.633 70.6148 142.938 70.6736C142.835 71.2368 143.156 71.8101 143.61 72.1665C144.064 72.5229 144.619 72.7079 145.16 72.8844C144.791 73.1451 144.366 73.3166 143.919 73.3854C143.472 73.4542 143.015 73.4186 142.585 73.2811C141.867 73.0458 141.273 72.5414 140.7 72.0471L137.477 69.2749C137.047 68.9263 136.649 68.5392 136.289 68.1182C134.204 65.5275 135.448 61.602 134.285 58.4901C133.336 55.9599 130.788 53.9055 131.021 51.2139C131.085 50.4607 131.374 49.7479 131.617 49.0284C132.475 46.4178 132.745 43.6495 132.406 40.9223C132.068 38.1951 131.129 35.5768 129.658 33.2555C129.29 32.6839 128.863 32.1089 128.249 31.8147C127.316 31.3692 125.983 31.5609 125.453 30.6715C125.173 30.2025 125.117 29.377 125.092 28.8508C126.803 28.4591 129.096 28.5684 130.697 29.3333Z" fill="#945B79"/>
<path opacity="0.1" d="M48.825 57.7974C49.6118 52.6261 56.0759 50.7583 59.5072 54.7108C60.4991 55.8573 61.3784 57.1132 61.876 58.369C63.5572 62.614 63.6833 62.9923 63.6833 62.9923C63.6833 62.9923 53.302 65.0097 53.386 66.5228L48.6787 58.9995C48.6787 58.9995 48.714 58.5287 48.825 57.7974Z" fill="black"/>
<path d="M48.825 57.2931C49.6118 52.1218 56.0759 50.254 59.5072 54.2064C60.4991 55.353 61.3784 56.6088 61.876 57.8647C63.5572 62.1097 63.6833 62.4879 63.6833 62.4879C63.6833 62.4879 53.302 64.5054 53.386 66.0184L48.6787 58.4951C48.6787 58.4951 48.714 58.0244 48.825 57.2931Z" fill="#DCE6F2"/>
<path opacity="0.1" d="M51.7468 50.6574C51.8729 50.8676 56.8324 56.9198 59.4382 57.7823C62.0441 58.6447 51.7468 50.6574 51.7468 50.6574Z" fill="black"/>
<path opacity="0.1" d="M30.4379 70.2231C30.4379 70.2231 43.5511 85.69 45.2323 91.9524L30.4379 70.2231Z" fill="black"/>
<path opacity="0.1" d="M30.9423 55.933C30.9423 55.933 33.8003 70.7274 39.3482 76.9478C44.8961 83.1682 50.6121 93.7597 50.6121 93.7597" stroke="black" stroke-width="0.336237" stroke-miterlimit="10"/>
<g opacity="0.1">
<path d="M71.4605 34.4088C71.4718 34.9005 71.3018 35.3792 70.983 35.7537C70.7289 36.0151 70.3937 36.1824 70.0321 36.2286C69.6705 36.2747 69.304 36.1968 68.9925 36.0076C68.8126 35.8933 68.6344 35.7336 68.4209 35.7521C68.297 35.7718 68.1808 35.8246 68.0846 35.9051C67.1381 36.5977 66.4219 37.714 65.3107 38.0217C65.35 38.3187 65.3201 38.6208 65.2233 38.9043C66.4337 38.6706 67.1734 37.4736 68.1687 36.7456C68.2649 36.6652 68.3811 36.6124 68.5049 36.5927C68.7184 36.5742 68.8967 36.7339 69.0765 36.8482C69.3881 37.0374 69.7546 37.1153 70.1162 37.0691C70.4777 37.023 70.813 36.8556 71.0671 36.5943C71.5866 36.0227 71.6185 35.162 71.4605 34.4088Z" fill="black"/>
<path d="M70.7896 31.2549C70.8031 31.3927 70.8266 31.5289 70.8535 31.6651C70.8535 30.8245 71.0536 29.9503 70.8535 29.1433C70.8569 29.8292 70.719 30.5555 70.7896 31.2549Z" fill="black"/>
<path d="M65.1896 36.9575C64.9328 37.2149 64.6181 37.4072 64.2719 37.5183C63.9256 37.6294 63.5578 37.6562 63.1991 37.5963C63.2852 37.386 63.2947 37.1522 63.226 36.9356C62.3737 37.4114 61.4869 37.8228 60.5731 38.1662L60.4773 37.6837C59.1895 38.3125 59.2904 40.4459 58.0026 41.0747C57.2359 41.4496 56.1533 41.1789 55.6237 41.8548C55.506 42.0077 55.4371 42.191 55.3295 42.3591C54.9092 43.003 54.0014 43.1425 53.2515 42.9727C52.0041 42.6903 50.987 41.7488 50.3263 40.6544C49.6656 39.5599 49.3092 38.3125 48.9612 37.0819L48.2752 34.6593C48.1626 34.2558 48.0483 33.8523 47.9743 33.4404C47.9743 33.5648 47.9743 33.6876 47.9928 33.8103C48.063 34.3835 48.1857 34.9491 48.3593 35.4999L49.0452 37.9225C49.3932 39.1531 49.748 40.4005 50.4103 41.495C51.0727 42.5894 52.0915 43.5309 53.3356 43.8133C54.0854 43.9815 54.9932 43.8436 55.4135 43.1997C55.5211 43.0316 55.5901 42.8517 55.7078 42.6953C56.2289 42.0229 57.32 42.2902 58.0866 41.9153C59.3744 41.2865 59.2735 39.1531 60.5613 38.5243L60.6572 39.0068C61.5692 38.6632 62.4543 38.2518 63.305 37.7762C63.3737 37.9928 63.3642 38.2266 63.2781 38.4369C63.6192 38.4934 63.9687 38.4715 64.3002 38.3731C64.6316 38.2747 64.9363 38.1022 65.1913 37.8687C65.263 37.5691 65.2625 37.2568 65.1896 36.9575Z" fill="black"/>
</g>
<path opacity="0.1" d="M61.9449 48.0415C61.0404 48.5627 58.939 49.7227 58.5136 49.5243C58.0597 49.3142 53.1069 47.5809 51.4526 47.0025C51.5619 46.441 51.957 45.012 53.2666 44.543C53.5318 44.4717 53.81 44.4642 54.0786 44.5211L59.102 46.5083C60.5092 47.2228 61.6776 47.8868 61.9449 48.0415Z" fill="black"/>
<path d="M61.9449 47.5372C61.0404 48.0583 58.939 49.2184 58.5136 49.02C58.0597 48.8098 53.1069 47.0765 51.4526 46.4982C51.5619 45.9367 51.957 44.5077 53.2666 44.0386C53.5318 43.9673 53.81 43.9598 54.0786 44.0168L59.102 46.0039C60.5092 46.7184 61.6776 47.3825 61.9449 47.5372Z" fill="#DCE6F2"/>
<path opacity="0.1" d="M128.367 34.8728C128.318 36.7675 128.061 38.6622 127.272 40.3182C125.864 43.2754 122.721 45.0356 119.793 44.506C119.397 44.4558 119.021 44.3047 118.7 44.0672C118.392 43.7819 118.151 43.4323 117.994 43.0434C117.379 41.7219 117.064 40.1988 116.203 39.0674C115.343 37.9359 113.596 37.4433 112.765 38.6017C112.313 39.2288 112.238 40.1971 111.634 40.6325C110.909 41.1554 109.953 40.5384 109.39 39.792C107.725 37.6064 108.295 33.3076 105.121 32.7058C104.607 32.6066 104.01 32.62 103.665 32.1762C103.462 31.9139 103.403 31.5508 103.354 31.2061C103.297 30.801 103.248 30.3874 103.22 29.9722C103.161 30.89 103.206 31.8115 103.354 32.7192C103.403 33.0639 103.462 33.427 103.665 33.6893C104.01 34.1331 104.607 34.1196 105.121 34.2188C108.295 34.8207 107.725 39.1144 109.39 41.305C109.951 42.0431 110.903 42.6601 111.634 42.1456C112.238 41.7102 112.306 40.7418 112.765 40.1147C113.596 38.9564 115.343 39.4507 116.203 40.5804C117.064 41.7102 117.38 43.235 117.994 44.5564C118.151 44.9454 118.392 45.295 118.7 45.5803C119.021 45.8178 119.397 45.9689 119.793 46.0191C122.721 46.5486 125.864 44.7884 127.272 41.8312C128.244 39.7936 128.407 37.3895 128.37 35.0745C128.367 35.0006 128.367 34.9333 128.367 34.8728Z" fill="black"/>
<g opacity="0.1">
<path d="M139.36 42.9425C139.717 43.8806 139.604 44.9246 139.448 45.9165C139.223 47.3502 138.92 48.7706 138.541 50.1716C138.314 51.0122 138.057 51.8864 138.23 52.7404C138.363 53.4028 138.735 53.9845 139.031 54.5897C139.802 56.2222 139.935 58.0731 139.994 59.8771C140.053 61.681 140.051 63.5168 140.591 65.2383C140.94 66.4116 141.608 67.4649 142.521 68.2813C142.039 67.6355 141.67 66.9124 141.431 66.1428C140.892 64.4213 140.892 62.5854 140.835 60.7815C140.777 58.9776 140.643 57.1266 139.871 55.4959C139.582 54.8856 139.199 54.3039 139.071 53.6466C138.903 52.7925 139.155 51.9166 139.382 51.0761C139.761 49.6713 140.064 48.2469 140.288 46.8092C140.444 45.8173 140.557 44.7716 140.201 43.8335C139.913 43.082 139.36 42.4886 138.76 41.9119C139.011 42.2229 139.214 42.5704 139.36 42.9425Z" fill="black"/>
<path d="M144.878 70.0516C144.428 69.903 144.006 69.6827 143.627 69.3993C143.151 69.6467 142.631 69.7975 142.097 69.8431C141.994 70.4063 142.316 70.9796 142.77 71.336C142.86 71.4086 142.955 71.4743 143.055 71.5327C142.938 71.2863 142.899 71.0101 142.943 70.7409C143.636 70.6797 144.302 70.4424 144.878 70.0516Z" fill="black"/>
<path d="M127.403 30.9876C126.763 30.6816 125.934 30.6749 125.305 30.4143C125.341 30.5311 125.389 30.6438 125.448 30.7505C125.978 31.6382 127.311 31.4465 128.244 31.8937C128.362 31.9529 128.474 32.0221 128.58 32.1005C128.289 31.6358 127.884 31.2528 127.403 30.9876Z" fill="black"/>
<path d="M143.771 72.3632C143.127 72.6378 142.406 72.6718 141.739 72.459C141.021 72.2237 140.428 71.7193 139.854 71.225L136.631 68.4528C136.479 68.3216 136.327 68.1888 136.179 68.0543C136.213 68.0997 136.247 68.1468 136.284 68.1922C136.643 68.6135 137.041 69.0007 137.472 69.3488L140.695 72.1228C141.268 72.6154 141.862 73.1214 142.58 73.3568C143.01 73.494 143.467 73.5294 143.914 73.4602C144.361 73.3911 144.786 73.2193 145.155 72.9583C144.669 72.825 144.203 72.6247 143.771 72.3632Z" fill="black"/>
<path d="M133.614 32.1829C134.483 33.3749 135.382 34.6492 135.497 36.1186C135.542 36.7204 135.453 37.3324 135.567 37.9242C135.749 38.8707 136.389 39.5818 137.106 40.2593C136.76 39.8441 136.52 39.3507 136.408 38.8219C136.294 38.2284 136.383 37.6165 136.337 37.0146C136.223 35.5453 135.329 34.2709 134.454 33.0807C133.822 32.2115 133.163 31.3238 132.388 30.5875C132.82 31.0985 133.222 31.6432 133.614 32.1829Z" fill="black"/>
</g>
<path opacity="0.1" d="M126.238 28.6978C126.238 28.6978 125.23 30.379 128.088 31.7794L128.256 31.3305L126.238 28.6978Z" fill="black"/>
<path d="M126.07 28.6978C126.07 28.6978 125.062 30.379 127.92 31.7794L128.088 31.3305L126.07 28.6978Z" fill="#FF6584"/>
<path d="M165.866 123.851C165.866 123.851 166.79 125.06 165.44 126.877C164.09 128.695 162.977 130.24 163.423 131.378C163.423 131.378 165.46 127.99 167.121 127.943C168.782 127.896 167.69 125.889 165.866 123.851Z" fill="#63FFFF"/>
<path opacity="0.1" d="M165.866 123.851C165.946 123.968 166.01 124.095 166.056 124.229C167.673 126.131 168.534 127.904 166.979 127.948C165.531 127.99 163.794 130.579 163.378 131.233C163.391 131.284 163.408 131.332 163.426 131.383C163.426 131.383 165.464 127.995 167.125 127.948C168.786 127.901 167.69 125.889 165.866 123.851Z" fill="black"/>
<path d="M167.584 125.391C167.584 125.816 167.535 126.161 167.476 126.161C167.417 126.161 167.37 125.825 167.37 125.391C167.37 124.957 167.429 125.166 167.488 125.166C167.547 125.166 167.584 124.966 167.584 125.391Z" fill="#FFD037"/>
<path d="M168.172 125.899C167.799 126.102 167.473 126.225 167.446 126.173C167.419 126.121 167.697 125.914 168.07 125.711C168.443 125.507 168.297 125.655 168.325 125.711C168.354 125.766 168.547 125.695 168.172 125.899Z" fill="#FFD037"/>
<path d="M160.982 123.851C160.982 123.851 160.057 125.06 161.407 126.877C162.757 128.695 163.87 130.24 163.425 131.378C163.425 131.378 161.389 127.99 159.726 127.943C158.063 127.896 159.165 125.889 160.982 123.851Z" fill="#63FFFF"/>
<path opacity="0.1" d="M160.982 123.851C160.901 123.968 160.837 124.095 160.792 124.229C159.175 126.131 158.314 127.904 159.869 127.948C161.316 127.99 163.053 130.579 163.47 131.233C163.456 131.284 163.439 131.334 163.42 131.383C163.42 131.383 161.384 127.995 159.721 127.948C158.058 127.901 159.164 125.889 160.982 123.851Z" fill="black"/>
<path d="M159.27 125.391C159.27 125.816 159.319 126.161 159.378 126.161C159.437 126.161 159.484 125.825 159.484 125.391C159.484 124.957 159.425 125.166 159.366 125.166C159.307 125.166 159.27 124.966 159.27 125.391Z" fill="#FFD037"/>
<path d="M158.682 125.899C159.055 126.102 159.38 126.225 159.408 126.173C159.437 126.121 159.158 125.914 158.784 125.711C158.411 125.507 158.558 125.655 158.529 125.711C158.5 125.766 158.309 125.695 158.682 125.899Z" fill="#FFD037"/>
<path d="M159.565 131.225C159.565 131.225 162.147 131.144 162.927 130.591C163.707 130.038 166.9 129.374 167.093 130.255C167.286 131.136 170.973 134.675 168.058 134.698C165.143 134.722 161.284 134.244 160.508 133.772C159.731 133.299 159.565 131.225 159.565 131.225Z" fill="#A8A8A8"/>
<path opacity="0.2" d="M168.108 134.399C165.193 134.422 161.335 133.945 160.558 133.473C159.966 133.111 159.731 131.818 159.652 131.223H159.565C159.565 131.223 159.733 133.306 160.506 133.78C161.279 134.254 165.141 134.73 168.056 134.707C168.897 134.707 169.188 134.401 169.172 133.957C169.051 134.231 168.734 134.399 168.108 134.399Z" fill="black"/>
<path d="M44.1546 128.261C44.4633 128.01 44.6884 127.671 44.8002 127.289C44.8826 126.903 44.7178 126.439 44.3496 126.297C43.9361 126.139 43.4939 126.427 43.1594 126.716C42.8248 127.005 42.4398 127.336 42.001 127.274C42.2267 127.07 42.3955 126.81 42.491 126.521C42.5864 126.232 42.6053 125.923 42.5457 125.625C42.5266 125.501 42.4743 125.385 42.3944 125.289C42.1658 125.043 41.7488 125.149 41.4731 125.342C40.5989 125.956 40.3551 127.145 40.3518 128.212C40.2627 127.827 40.3366 127.425 40.335 127.035C40.3333 126.645 40.224 126.195 39.8911 125.99C39.6855 125.876 39.4537 125.818 39.2187 125.822C38.8253 125.806 38.3882 125.847 38.1192 126.134C37.7829 126.491 37.872 127.091 38.1629 127.479C38.4537 127.868 38.8942 128.12 39.2994 128.39C39.6254 128.584 39.9036 128.849 40.113 129.165C40.1375 129.21 40.1578 129.257 40.1736 129.305H42.6264C43.1807 129.028 43.6948 128.676 44.1546 128.261Z" fill="#63FFFF"/>
<path d="M24.5805 130.912C24.5805 130.912 22.2269 122.893 25.0227 116.989C26.2147 114.52 26.5745 111.732 26.0482 109.042C25.787 107.766 25.41 106.518 24.9218 105.311" stroke="#535461" stroke-width="0.336237" stroke-miterlimit="10"/>
<path d="M26.6686 101.581C26.6686 102.562 24.8882 105.414 24.8882 105.414C24.8882 105.414 23.1078 102.556 23.1078 101.581C23.1078 101.108 23.2954 100.655 23.6293 100.322C23.9632 99.9877 24.416 99.8001 24.8882 99.8001C25.3604 99.8001 25.8133 99.9877 26.1471 100.322C26.481 100.655 26.6686 101.108 26.6686 101.581Z" fill="#63FFFF"/>
<path d="M29.6107 107.024C29.0761 107.85 26.0331 109.275 26.0331 109.275C26.0331 109.275 26.0869 105.913 26.6216 105.091C26.8828 104.706 27.2845 104.438 27.7407 104.345C28.1968 104.253 28.6711 104.342 29.0619 104.595C29.4527 104.848 29.729 105.244 29.8316 105.698C29.9342 106.152 29.8549 106.628 29.6107 107.024Z" fill="#63FFFF"/>
<path d="M29.4812 116.33C28.6036 116.772 25.2564 116.466 25.2564 116.466C25.2564 116.466 27.0015 113.594 27.8791 113.15C28.0884 113.04 28.3177 112.972 28.5535 112.95C28.7894 112.929 29.0272 112.956 29.2528 113.027C29.4785 113.099 29.6875 113.216 29.8677 113.369C30.0479 113.523 30.1956 113.711 30.3022 113.923C30.4088 114.134 30.4721 114.365 30.4884 114.601C30.5048 114.837 30.4738 115.074 30.3973 115.298C30.3209 115.523 30.2005 115.729 30.0432 115.906C29.8859 116.083 29.6948 116.227 29.4812 116.33Z" fill="#63FFFF"/>
<path d="M27.7984 123.347C27.0083 123.932 23.6577 124.187 23.6577 124.187C23.6577 124.187 24.8916 121.062 25.6751 120.477C25.8616 120.324 26.0772 120.211 26.3089 120.144C26.5406 120.077 26.7834 120.057 27.0228 120.087C27.2621 120.117 27.4929 120.195 27.7012 120.316C27.9095 120.438 28.0909 120.601 28.2345 120.794C28.378 120.988 28.4807 121.209 28.5362 121.444C28.5918 121.678 28.5991 121.922 28.5577 122.16C28.5163 122.397 28.427 122.624 28.2953 122.826C28.1637 123.028 27.9923 123.201 27.7917 123.335L27.7984 123.347Z" fill="#63FFFF"/>
<path d="M22.2959 109.465C23.0003 110.151 26.2853 110.861 26.2853 110.861C26.2853 110.861 25.48 107.597 24.7722 106.912C24.606 106.742 24.4075 106.607 24.1884 106.515C23.9693 106.423 23.7339 106.376 23.4963 106.376C23.2587 106.377 23.0235 106.425 22.8047 106.518C22.5859 106.61 22.3879 106.746 22.2224 106.916C22.0568 107.087 21.9271 107.289 21.8408 107.51C21.7545 107.732 21.7134 107.968 21.72 108.206C21.7265 108.443 21.7805 108.677 21.8789 108.893C21.9772 109.11 22.1178 109.304 22.2925 109.465H22.2959Z" fill="#63FFFF"/>
<path d="M20.4348 117.698C21.3124 118.14 24.6596 117.836 24.6596 117.836C24.6596 117.836 22.9162 114.963 22.0369 114.521C21.8283 114.415 21.601 114.352 21.368 114.335C21.135 114.318 20.9008 114.346 20.6789 114.419C20.457 114.493 20.2517 114.609 20.0746 114.761C19.8976 114.914 19.7523 115.1 19.6471 115.308C19.5419 115.517 19.4789 115.744 19.4615 115.977C19.4442 116.21 19.4729 116.444 19.546 116.666C19.6192 116.888 19.7353 117.093 19.8878 117.271C20.0403 117.448 20.2261 117.593 20.4348 117.698Z" fill="#63FFFF"/>
<path d="M19.7186 125.949C20.5088 126.533 23.8594 126.79 23.8594 126.79C23.8594 126.79 22.6254 123.663 21.842 123.078C21.4617 122.824 20.9986 122.727 20.5483 122.805C20.0981 122.883 19.6953 123.132 19.4233 123.499C19.1512 123.867 19.0309 124.324 19.0871 124.778C19.1434 125.232 19.3719 125.646 19.7253 125.936L19.7186 125.949Z" fill="#63FFFF"/>
<path d="M26.6686 101.581C26.6686 102.562 24.8882 105.414 24.8882 105.414C24.8882 105.414 23.1078 102.556 23.1078 101.581C23.1078 101.108 23.2954 100.655 23.6293 100.322C23.9632 99.9877 24.416 99.8001 24.8882 99.8001C25.3604 99.8001 25.8133 99.9877 26.1471 100.322C26.481 100.655 26.6686 101.108 26.6686 101.581Z" fill="#63FFFF"/>
<path d="M29.6107 107.024C29.0761 107.85 26.0331 109.275 26.0331 109.275C26.0331 109.275 26.0869 105.913 26.6216 105.091C26.8828 104.706 27.2845 104.438 27.7407 104.345C28.1968 104.253 28.6711 104.342 29.0619 104.595C29.4527 104.848 29.729 105.244 29.8316 105.698C29.9342 106.152 29.8549 106.628 29.6107 107.024Z" fill="#63FFFF"/>
<path d="M29.4812 116.33C28.6036 116.772 25.2564 116.466 25.2564 116.466C25.2564 116.466 27.0015 113.594 27.8791 113.15C28.0884 113.04 28.3177 112.972 28.5535 112.95C28.7894 112.929 29.0272 112.956 29.2528 113.027C29.4785 113.099 29.6875 113.216 29.8677 113.369C30.0479 113.523 30.1956 113.711 30.3022 113.923C30.4088 114.134 30.4721 114.365 30.4884 114.601C30.5048 114.837 30.4738 115.074 30.3973 115.298C30.3209 115.523 30.2005 115.729 30.0432 115.906C29.8859 116.083 29.6948 116.227 29.4812 116.33Z" fill="#63FFFF"/>
<path d="M27.7984 123.347C27.0083 123.932 23.6577 124.187 23.6577 124.187C23.6577 124.187 24.8916 121.062 25.6751 120.477C25.8616 120.324 26.0772 120.211 26.3089 120.144C26.5406 120.077 26.7834 120.057 27.0228 120.087C27.2621 120.117 27.4929 120.195 27.7012 120.316C27.9095 120.438 28.0909 120.601 28.2345 120.794C28.378 120.988 28.4807 121.209 28.5362 121.444C28.5918 121.678 28.5991 121.922 28.5577 122.16C28.5163 122.397 28.427 122.624 28.2953 122.826C28.1637 123.028 27.9923 123.201 27.7917 123.335L27.7984 123.347Z" fill="#63FFFF"/>
<path d="M22.2959 109.465C23.0003 110.151 26.2853 110.861 26.2853 110.861C26.2853 110.861 25.48 107.597 24.7722 106.912C24.606 106.742 24.4075 106.607 24.1884 106.515C23.9693 106.423 23.7339 106.376 23.4963 106.376C23.2587 106.377 23.0235 106.425 22.8047 106.518C22.5859 106.61 22.3879 106.746 22.2224 106.916C22.0568 107.087 21.9271 107.289 21.8408 107.51C21.7545 107.732 21.7134 107.968 21.72 108.206C21.7265 108.443 21.7805 108.677 21.8789 108.893C21.9772 109.11 22.1178 109.304 22.2925 109.465H22.2959Z" fill="#63FFFF"/>
<path d="M20.4348 117.698C21.3124 118.14 24.6596 117.836 24.6596 117.836C24.6596 117.836 22.9162 114.963 22.0369 114.521C21.8283 114.415 21.601 114.352 21.368 114.335C21.135 114.318 20.9008 114.346 20.6789 114.419C20.457 114.493 20.2517 114.609 20.0746 114.761C19.8976 114.914 19.7523 115.1 19.6471 115.308C19.5419 115.517 19.4789 115.744 19.4615 115.977C19.4442 116.21 19.4729 116.444 19.546 116.666C19.6192 116.888 19.7353 117.093 19.8878 117.271C20.0403 117.448 20.2261 117.593 20.4348 117.698Z" fill="#63FFFF"/>
<path d="M19.7186 125.949C20.5088 126.533 23.8594 126.79 23.8594 126.79C23.8594 126.79 22.6254 123.663 21.842 123.078C21.4617 122.824 20.9986 122.727 20.5483 122.805C20.0981 122.883 19.6953 123.132 19.4233 123.499C19.1512 123.867 19.0309 124.324 19.0871 124.778C19.1434 125.232 19.3719 125.646 19.7253 125.936L19.7186 125.949Z" fill="#63FFFF"/>
<path d="M18.9974 130.408C18.9974 130.408 21.8739 129.836 22.6406 129.075C23.4072 128.313 26.8603 126.98 27.2436 127.931C27.627 128.883 32.4217 132.121 29.1619 132.693C25.9021 133.264 21.4906 133.454 20.5307 133.072C19.5707 132.691 18.9974 130.408 18.9974 130.408Z" fill="#A8A8A8"/>
<path opacity="0.2" d="M29.1619 132.338C25.9004 132.909 21.4906 133.099 20.5307 132.719C19.801 132.429 19.2933 131.038 19.0933 130.388L18.9974 130.408C18.9974 130.408 19.5724 132.693 20.5307 133.072C21.489 133.452 25.9004 133.264 29.1619 132.693C30.1017 132.524 30.3706 132.139 30.2698 131.65C30.1857 131.97 29.8612 132.213 29.1619 132.338Z" fill="black"/>
</g>
<defs>
<linearGradient id="paint0_linear_1_241" x1="86.3103" y1="135.564" x2="86.3103" y2="23.0793" gradientUnits="userSpaceOnUse">
<stop stop-color="#808080" stop-opacity="0.25"/>
<stop offset="0.54" stop-color="#808080" stop-opacity="0.12"/>
<stop offset="1" stop-color="#808080" stop-opacity="0.1"/>
</linearGradient>
<clipPath id="clip0_1_241">
<rect width="184.443" height="138" fill="white"/>
</clipPath>
</defs>
</svg>
