<svg width="56" height="57" viewBox="0 0 56 57" fill="none" xmlns="http://www.w3.org/2000/svg">
<g clip-path="url(#clip0_158_139)">
<path d="M46.4579 34.0982H32.0673V46.4561H46.4579V34.0982Z" fill="#160D08"/>
<path d="M26.435 34.2852H9.54224V36.1623H26.435V34.2852Z" fill="#160D08"/>
<path d="M26.435 44.392H9.54224V46.2691H26.435V44.392Z" fill="#160D08"/>
<path d="M26.435 39.3391H9.54224V41.2162H26.435V39.3391Z" fill="#160D08"/>
<path d="M45.5468 0.500359H10.4541C4.67983 0.501343 0.00175 5.1803 0 10.9537V44.1692C0.00273437 50.9791 5.51939 56.4976 12.3312 56.4995H43.6697C50.4805 56.4976 55.9981 50.98 56 44.1692V10.9537C55.9991 5.1803 51.3201 0.501343 45.5468 0.500359ZM50.838 44.1692C50.8372 46.1544 50.0387 47.9343 48.7383 49.2376C47.435 50.5382 45.655 51.3365 43.6698 51.3374H12.3312C10.346 51.3364 8.56505 50.5381 7.26184 49.2376C5.96116 47.9343 5.16381 46.1544 5.16206 44.1692V13.4823H50.8382V44.1692H50.838Z" fill="#160D08"/>
<path d="M9.73004 29.8024H13.5126C15.6683 29.8024 16.9734 28.8639 16.9734 26.8988C16.9734 25.7118 16.2989 24.8898 15.639 24.6404V24.6111C16.299 24.2444 16.7975 23.5699 16.7975 22.4857C16.7975 20.901 15.7857 19.8314 13.6162 19.8314H9.73004C9.64298 19.8314 9.58435 19.89 9.58435 19.9779V29.6549C9.58435 29.7437 9.64298 29.8024 9.73004 29.8024ZM11.7401 21.6635C11.7401 21.6058 11.7676 21.5756 11.8281 21.5756H13.3532C14.1735 21.5756 14.6575 22.0008 14.6575 22.7332C14.6575 23.4673 14.1735 23.9072 13.3532 23.9072H11.8281C11.7676 23.9072 11.7401 23.8779 11.7401 23.8193V21.6635ZM11.7401 25.6513C11.7401 25.5936 11.7676 25.5644 11.8281 25.5644H13.4687C14.3504 25.5644 14.8187 26.0483 14.8187 26.8118C14.8187 27.588 14.3504 28.0582 13.4687 28.0582H11.8281C11.7676 28.0582 11.7401 28.028 11.7401 27.9694V25.6513Z" fill="#160D08"/>
<path d="M19.8533 29.8024H26.3506C26.4377 29.8024 26.4963 29.7438 26.4963 29.6549V28.028C26.4963 27.9391 26.4377 27.8814 26.3506 27.8814H21.9511C21.8916 27.8814 21.8632 27.8521 21.8632 27.7926V19.978C21.8632 19.8901 21.8054 19.8315 21.7165 19.8315H19.8532C19.7652 19.8315 19.7075 19.8901 19.7075 19.978V29.655C19.7075 29.7437 19.7653 29.8024 19.8533 29.8024Z" fill="#160D08"/>
<path d="M32.0149 29.9628C33.7608 29.9628 35.1384 29.1571 35.6517 27.544C35.8717 26.8548 35.9294 26.2975 35.9294 24.8164C35.9294 23.3352 35.8717 22.7779 35.6517 22.0887C35.1384 20.4766 33.7608 19.6699 32.0149 19.6699C30.2697 19.6699 28.8913 20.4766 28.3789 22.0887C28.158 22.7779 28.0994 23.3352 28.0994 24.8164C28.0994 26.2975 28.158 26.8548 28.3789 27.544C28.8912 29.1572 30.2697 29.9628 32.0149 29.9628ZM30.4457 22.6753C30.6656 21.9862 31.1946 21.5756 32.0148 21.5756C32.836 21.5756 33.3639 21.9862 33.5839 22.6753C33.7012 23.0282 33.7451 23.5103 33.7451 24.8165C33.7451 26.1207 33.7011 26.6055 33.5839 26.9566C33.3639 27.6468 32.836 28.0582 32.0148 28.0582C31.1945 28.0582 30.6656 27.6467 30.4457 26.9566C30.3293 26.6055 30.2843 26.1207 30.2843 24.8165C30.2843 23.5103 30.3293 23.0282 30.4457 22.6753Z" fill="#160D08"/>
<path d="M42.4333 29.9628C44.1921 29.9628 45.5707 29.0691 46.0701 27.4697C46.2451 26.9281 46.3176 26.1069 46.3176 25.227V24.4048C46.3176 24.3186 46.259 24.259 46.1719 24.259H42.7413C42.6523 24.259 42.5937 24.3186 42.5937 24.4048V25.8144C42.5937 25.9015 42.6523 25.9601 42.7413 25.9601H44.0894C44.148 25.9601 44.1775 25.9904 44.1775 26.0481C44.1775 26.4724 44.1334 26.7813 44.0601 27.0315C43.8547 27.6906 43.2095 28.0581 42.4617 28.0581C41.5965 28.0581 41.0529 27.6465 40.833 26.9565C40.7166 26.6054 40.6727 26.1205 40.6727 24.8164C40.6727 23.5103 40.7166 23.042 40.833 22.69C41.0529 22.0007 41.5819 21.5755 42.4333 21.5755C43.2536 21.5755 43.7512 21.9274 44.148 22.602C44.1775 22.6752 44.2507 22.7047 44.3543 22.6752L45.9225 22.0154C46.0096 21.9714 46.0261 21.8835 45.9812 21.7945C45.511 20.592 44.2947 19.6699 42.4331 19.6699C40.6578 19.6699 39.2793 20.4766 38.7661 22.0887C38.5461 22.7779 38.4866 23.3352 38.4866 24.8164C38.4866 26.2975 38.5462 26.8548 38.7661 27.544C39.2794 29.1572 40.658 29.9628 42.4333 29.9628Z" fill="#160D08"/>
</g>
<defs>
<clipPath id="clip0_158_139">
<rect width="56" height="56" fill="white" transform="translate(0 0.5)"/>
</clipPath>
</defs>
</svg>
