<svg width="42" height="42" viewBox="0 0 42 42" fill="none" xmlns="http://www.w3.org/2000/svg">
<path d="M6.22222 0V4.2H4.14815C1.86667 4.2 0 6.09 0 8.4V31.5C0 33.81 1.86667 35.7 4.14815 35.7H18.2519C21.9852 31.92 18.2519 35.7 22.4 31.5H4.14815V12.6H29.037V24.99C32.3556 21.63 29.4519 24.57 33.1852 20.79V8.4C33.1852 6.09 31.3185 4.2 29.037 4.2H26.963V0H22.8148V4.2H10.3704V0H6.22222ZM16.5926 15.12L14.9333 19.32L10.3704 19.74L13.6889 22.68L12.6519 27.09L16.3852 24.78L20.1185 27.09L19.0815 22.68L22.4 19.74L17.837 19.32L16.5926 15.12ZM38.3704 21C38.163 21 37.7481 21.21 37.5407 21.42L35.8815 23.1L40.0296 27.3L41.6889 25.62C42.1037 25.2 42.1037 24.36 41.6889 24.15L38.9926 21.42C38.9926 21 38.5778 21 38.3704 21ZM34.8444 24.15L21.363 37.8V42H25.5111L38.9926 28.35L34.8444 24.15Z" fill="black"/>
</svg>
