<?xml version="1.0" standalone="no"?>
<!DOCTYPE svg PUBLIC "-//W3C//DTD SVG 20010904//EN"
 "http://www.w3.org/TR/2001/REC-SVG-20010904/DTD/svg10.dtd">
<svg version="1.0" xmlns="http://www.w3.org/2000/svg"
 width="500.000000pt" height="500.000000pt" viewBox="0 0 500.000000 500.000000"
 preserveAspectRatio="xMidYMid meet">

<g transform="translate(0.000000,500.000000) scale(0.100000,-0.100000)"
fill="#000000" stroke="none">
<path d="M1364 4607 c-625 -275 -1078 -796 -1238 -1427 -60 -239 -71 -339 -71
-665 0 -222 5 -322 18 -425 57 -420 167 -729 367 -1029 96 -144 281 -341 414
-441 47 -36 83 -66 78 -68 -4 -1 -68 11 -141 28 -147 33 -171 36 -189 18 -16
-16 -15 -53 1 -66 14 -12 583 -142 621 -142 29 0 51 32 41 58 -16 43 -282 456
-302 469 -16 11 -27 12 -41 4 -40 -21 -33 -46 55 -187 46 -75 83 -138 81 -140
-6 -5 -167 118 -243 185 -282 251 -488 604 -586 1006 -61 251 -73 367 -74 725
0 268 3 343 18 428 82 476 270 840 598 1158 192 186 446 351 684 444 74 30 95
46 95 76 0 23 -25 44 -52 44 -7 0 -67 -24 -134 -53z"/>
<path d="M3578 4329 c-40 -23 -21 -55 146 -252 90 -107 172 -197 181 -201 25
-9 55 11 55 38 0 14 -36 65 -95 135 -52 62 -95 115 -95 118 0 2 35 -14 78 -37
452 -248 727 -588 902 -1120 154 -464 184 -964 84 -1362 -120 -477 -440 -898
-889 -1170 -98 -59 -116 -78 -99 -106 19 -30 56 -25 134 22 404 238 726 615
880 1031 134 364 159 727 80 1186 -53 303 -118 515 -230 744 -189 389 -432
643 -815 853 -17 10 -13 11 25 11 25 0 89 -4 143 -9 66 -6 105 -6 118 1 25 13
26 64 2 74 -10 3 -121 15 -248 25 -126 11 -255 21 -285 24 -30 3 -63 1 -72 -5z"/>
<path d="M1825 3568 c-4 -9 2 -26 12 -37 10 -12 20 -31 23 -44 9 -34 35 -28
33 7 -3 38 -59 98 -68 74z"/>
<path d="M1755 3560 c-4 -6 0 -19 9 -29 9 -9 21 -32 27 -49 13 -37 39 -43 39
-8 0 25 -38 87 -57 93 -6 2 -14 -1 -18 -7z"/>
<path d="M2861 3514 c-140 -20 -290 -67 -367 -114 -30 -19 -31 -19 -92 6 -120
48 -209 66 -342 67 -105 2 -125 0 -125 -13 0 -12 19 -17 80 -22 170 -15 385
-64 385 -88 0 -17 -70 -62 -87 -57 -286 82 -415 107 -564 107 -242 0 -428 -78
-605 -254 -100 -100 -138 -165 -168 -288 -30 -122 -46 -335 -30 -395 5 -17 20
-27 57 -38 28 -8 51 -15 52 -15 1 0 8 35 14 78 42 266 117 502 181 570 20 21
24 22 43 9 12 -7 72 -43 132 -79 312 -184 535 -282 535 -236 0 7 -27 67 -59
133 -90 183 -89 185 45 55 115 -111 119 -116 117 -155 -1 -22 -5 -105 -9 -184
l-7 -143 -32 -14 c-121 -50 -179 -203 -124 -324 51 -114 144 -155 307 -137 20
2 27 -6 44 -52 14 -38 40 -75 83 -118 60 -62 61 -64 36 -69 -14 -3 -42 -10
-61 -15 -202 -49 -578 -58 -795 -20 -185 33 -274 63 -338 115 -68 55 -117 147
-117 217 0 36 -4 51 -16 56 -19 7 -34 -13 -34 -44 0 -26 -27 -37 -92 -36 -171
2 -239 226 -98 319 42 28 93 34 180 22 17 -2 25 2 28 14 4 21 -33 38 -82 38
l-33 0 -6 83 c-4 46 -2 133 3 193 44 469 301 724 759 752 97 6 106 9 106 27 0
19 -6 20 -107 17 -252 -6 -493 -114 -623 -280 -63 -80 -121 -201 -151 -318
-22 -84 -27 -128 -31 -287 l-6 -187 -48 -26 c-172 -94 -142 -351 49 -408 45
-13 122 -10 149 7 6 4 14 -4 18 -21 19 -79 105 -176 195 -222 229 -115 805
-135 1168 -41 67 18 78 18 115 5 219 -78 676 -112 947 -70 157 24 293 54 366
80 l60 22 -8 -55 c-15 -106 8 -223 58 -288 52 -69 201 -143 285 -143 32 0 49
24 30 43 -6 6 -11 26 -11 43 0 27 12 44 76 106 102 99 139 173 139 278 0 57
-6 85 -22 116 -31 58 -66 98 -118 132 l-45 30 33 21 c145 89 134 331 -17 412
l-44 23 0 107 c-1 125 -6 174 -34 284 -54 218 -201 416 -393 529 -128 74 -381
146 -518 146 -44 0 -48 -2 -45 -22 3 -21 10 -24 83 -30 102 -9 249 -47 349
-88 324 -135 506 -428 506 -815 l0 -103 -56 -4 c-56 -5 -92 -26 -79 -48 5 -7
28 -9 74 -4 70 7 124 -8 164 -44 35 -31 60 -94 60 -150 0 -102 -88 -182 -201
-182 -44 0 -57 4 -76 25 -32 35 -56 24 -56 -24 0 -100 -69 -200 -173 -251
-315 -154 -1177 -142 -1412 20 -83 57 -144 159 -145 242 0 59 -7 78 -30 78
-13 0 -19 -11 -24 -39 -7 -44 -20 -51 -100 -51 -30 0 -67 8 -94 21 -125 61
-136 250 -19 327 37 25 49 27 136 27 95 0 118 9 87 35 -9 6 -39 15 -68 19
l-53 6 -3 75 c-7 160 37 363 111 505 56 108 200 255 303 308 108 55 235 93
379 112 157 21 157 21 153 42 -4 24 -63 26 -187 7z m1271 -1538 c86 -5 193
-80 234 -164 25 -51 24 -143 -4 -205 -14 -31 -50 -76 -101 -125 -66 -65 -82
-86 -92 -126 -11 -44 -14 -47 -38 -41 -82 20 -167 84 -197 149 -20 43 -24 67
-24 149 0 109 12 149 61 205 35 39 79 126 79 155 0 14 5 17 19 12 11 -3 39 -7
63 -9z"/>
<path d="M2670 3195 c-13 -34 -13 -67 1 -141 26 -143 122 -268 255 -331 76
-36 219 -71 247 -60 25 10 22 46 -5 51 -13 2 -52 9 -88 16 -157 29 -288 131
-337 263 -8 23 -18 82 -22 132 -5 74 -9 90 -23 93 -12 2 -21 -6 -28 -23z"/>
<path d="M2980 3145 c-10 -12 -8 -22 14 -55 40 -61 161 -185 235 -241 124 -93
386 -208 484 -213 27 -1 32 2 32 23 0 22 -8 26 -90 48 -237 63 -440 195 -592
386 -30 37 -58 67 -62 67 -5 0 -14 -7 -21 -15z"/>
<path d="M1540 2523 c-49 -6 -100 -24 -100 -35 0 -6 9 -8 23 -4 12 3 41 9 65
13 60 8 71 33 12 26z"/>
<path d="M2785 2514 c-43 -9 -95 -28 -95 -34 0 -16 13 -17 48 -4 20 7 52 13
70 14 22 0 32 5 32 15 0 15 -14 17 -55 9z"/>
<path d="M3417 2514 c-12 -13 4 -24 36 -24 18 -1 49 -7 70 -14 47 -17 61 -1
15 18 -42 18 -112 29 -121 20z"/>
<path d="M1490 2343 c-94 -84 -28 -264 84 -232 89 25 111 170 35 233 -40 34
-80 33 -119 -1z"/>
<path d="M3392 2350 c-108 -66 -61 -270 61 -270 54 0 107 72 107 145 0 74 -56
145 -115 145 -11 0 -35 -9 -53 -20z"/>
<path d="M2758 2344 c-75 -40 -81 -183 -11 -246 72 -65 175 8 175 123 -1 107
-82 168 -164 123z"/>
<path d="M3092 2133 c2 -10 10 -18 18 -18 8 0 16 8 18 18 2 12 -3 17 -18 17
-15 0 -20 -5 -18 -17z"/>
<path d="M1830 2124 c0 -16 23 -44 35 -44 18 0 20 21 3 38 -12 12 -38 17 -38
6z"/>
<path d="M3014 2016 c-9 -24 31 -64 78 -77 61 -16 148 31 148 80 0 19 -22 12
-58 -20 -29 -26 -41 -30 -70 -25 -19 3 -48 17 -63 32 -25 24 -29 25 -35 10z"/>
<path d="M1685 1989 c-9 -14 3 -28 48 -51 32 -17 59 -22 117 -23 82 0 170 26
170 51 0 18 1 18 -72 -7 -73 -24 -125 -20 -205 16 -30 13 -55 20 -58 14z"/>
</g>
</svg>
