<?xml version="1.0" standalone="no"?>
<!DOCTYPE svg PUBLIC "-//W3C//DTD SVG 20010904//EN"
 "http://www.w3.org/TR/2001/REC-SVG-20010904/DTD/svg10.dtd">
<svg version="1.0" xmlns="http://www.w3.org/2000/svg"
 width="500.000000pt" height="500.000000pt" viewBox="0 0 500.000000 500.000000"
 preserveAspectRatio="xMidYMid meet">

<g transform="translate(0.000000,500.000000) scale(0.100000,-0.100000)"
fill="#000000" stroke="none">
<path d="M1372 4621 c-321 -139 -628 -369 -834 -625 -263 -326 -405 -667 -464
-1116 -21 -160 -15 -611 10 -795 59 -421 197 -781 412 -1072 76 -103 233 -263
348 -354 54 -44 94 -79 90 -79 -5 0 -76 14 -158 32 l-148 32 -19 -23 c-46 -57
-30 -64 316 -141 328 -73 345 -74 345 -23 0 25 -263 457 -295 483 -22 19 -59
8 -69 -21 -7 -22 3 -43 77 -160 46 -74 83 -136 81 -138 -11 -12 -189 134 -309
254 -168 168 -249 277 -350 478 -155 308 -232 640 -250 1077 -29 689 179 1254
617 1676 199 191 451 354 701 454 68 27 94 58 77 89 -17 32 -53 26 -178 -28z"/>
<path d="M3572 4338 c-7 -7 -12 -21 -12 -31 0 -11 68 -101 151 -201 161 -192
183 -216 204 -216 18 0 45 28 45 45 0 8 -42 65 -94 127 -52 62 -92 114 -91
116 6 7 163 -83 265 -152 134 -91 321 -275 417 -411 158 -224 258 -447 333
-740 204 -799 93 -1419 -349 -1946 -134 -161 -295 -298 -501 -426 -78 -48 -96
-64 -98 -86 -3 -21 2 -29 22 -38 23 -11 35 -6 118 44 464 281 791 700 923
1183 58 210 70 311 69 569 0 204 -4 249 -28 395 -87 511 -227 862 -471 1175
-128 165 -339 342 -545 460 l-65 37 60 -6 c182 -17 245 -19 260 -6 23 19 19
59 -7 70 -20 8 -500 50 -568 50 -15 0 -31 -5 -38 -12z"/>
<path d="M2453 3974 c-3 -9 -2 -22 3 -29 36 -49 47 -69 53 -98 5 -23 13 -33
29 -35 19 -3 22 1 22 34 0 56 -58 144 -95 144 -3 0 -8 -7 -12 -16z"/>
<path d="M2357 3963 c-13 -12 -7 -32 18 -57 13 -13 27 -37 30 -53 11 -49 14
-53 35 -53 21 0 24 7 20 50 -3 32 -16 58 -48 93 -26 27 -42 33 -55 20z"/>
<path d="M2170 3849 c-787 -65 -1196 -570 -1178 -1453 l3 -169 -42 -14 c-60
-20 -137 -93 -170 -161 -24 -50 -28 -69 -28 -147 0 -76 4 -99 26 -145 50 -107
127 -167 244 -190 58 -11 115 -7 190 15 18 5 22 -1 33 -41 19 -70 72 -151 144
-220 111 -106 199 -144 452 -193 483 -94 899 -89 1377 18 212 47 307 90 394
177 55 55 111 147 125 205 l12 50 42 -8 c202 -40 385 79 416 271 23 145 -55
305 -177 360 l-39 17 0 247 c1 273 -8 362 -56 532 -89 320 -288 570 -563 708
-163 81 -404 134 -620 136 l-130 1 -3 -27 c-4 -33 1 -34 149 -43 510 -28 864
-237 1034 -609 94 -207 139 -509 120 -807 l-7 -116 -56 -6 c-107 -9 -162 -50
-117 -87 11 -9 24 -8 60 5 114 44 256 -20 311 -140 50 -107 21 -246 -66 -315
-57 -45 -101 -60 -177 -60 -88 0 -108 6 -122 36 -11 26 -60 35 -62 12 -7 -151
-43 -233 -146 -330 -81 -75 -158 -106 -384 -152 -217 -44 -352 -58 -615 -63
-279 -6 -462 8 -684 53 -238 48 -340 94 -440 201 -78 83 -112 154 -117 246 -6
96 -10 114 -29 121 -27 10 -44 -13 -44 -59 0 -40 -2 -42 -39 -53 -104 -32
-216 -8 -289 62 -99 92 -108 254 -21 359 65 79 207 119 293 83 22 -9 47 -14
57 -11 23 8 32 34 18 51 -14 17 -102 44 -145 44 l-32 0 -7 123 c-8 145 7 358
35 499 115 563 505 888 1100 915 74 3 143 10 153 15 21 11 22 54 1 62 -18 7
-53 6 -184 -5z"/>
<path d="M2187 3720 c-271 -31 -523 -155 -750 -370 -123 -115 -191 -230 -242
-407 -47 -161 -73 -425 -58 -588 l8 -79 79 -23 c44 -12 81 -22 82 -20 1 1 14
70 28 154 69 413 174 740 264 826 l29 28 167 -101 c356 -214 744 -410 820
-414 17 0 33 6 40 17 9 14 1 36 -46 125 -53 101 -148 305 -148 318 0 4 43 -35
96 -86 415 -396 704 -603 784 -560 57 30 -9 204 -185 485 -51 82 28 -24 280
-375 153 -212 280 -388 284 -391 3 -4 40 -2 81 5 l75 11 -2 114 c-5 285 -87
607 -208 814 -62 106 -164 211 -261 269 -63 37 -120 59 -284 107 -247 73 -382
106 -515 125 -132 20 -321 27 -418 16z"/>
<path d="M1985 2400 c-53 -11 -115 -38 -115 -50 0 -19 18 -19 79 0 35 11 78
20 98 20 27 0 34 4 31 18 -4 20 -35 24 -93 12z"/>
<path d="M2877 2404 c-16 -17 -6 -34 21 -34 15 0 55 -7 87 -16 78 -21 90 -22
90 -5 0 26 -177 75 -198 55z"/>
<path d="M2865 2166 c-83 -38 -127 -159 -93 -257 29 -88 105 -139 176 -120 38
11 89 56 113 101 20 40 16 138 -8 191 -35 79 -120 117 -188 85z"/>
<path d="M1981 2154 c-55 -29 -85 -85 -89 -169 -3 -58 0 -80 17 -112 24 -49
70 -89 110 -98 33 -7 94 15 128 47 77 72 66 259 -19 320 -40 28 -104 33 -147
12z"/>
<path d="M2464 1805 c-6 -14 31 -75 45 -75 15 0 29 23 24 39 -16 44 -58 66
-69 36z"/>
<path d="M2247 1603 c-4 -3 -7 -15 -7 -25 0 -14 21 -29 78 -56 75 -36 80 -37
187 -36 93 0 119 4 169 25 62 25 88 51 71 68 -7 7 -32 2 -75 -16 -119 -48
-262 -39 -367 22 -46 28 -47 28 -56 18z"/>
</g>
</svg>
