<svg width="24" height="24" viewBox="0 0 24 24" fill="none" xmlns="http://www.w3.org/2000/svg">
<path d="M5 21C4.45 21 3.975 20.8083 3.575 20.425C3.19167 20.025 3 19.55 3 19V5C3 4.45 3.19167 3.98333 3.575 3.6C3.975 3.2 4.45 3 5 3H19C19.55 3 20.0167 3.2 20.4 3.6C20.8 3.98333 21 4.45 21 5V19C21 19.55 20.8 20.025 20.4 20.425C20.0167 20.8083 19.55 21 19 21H5ZM12 16C12.6333 16 13.2083 15.8167 13.725 15.45C14.2417 15.0833 14.6 14.6 14.8 14H19V5H5V14H9.2C9.4 14.6 9.75833 15.0833 10.275 15.45C10.7917 15.8167 11.3667 16 12 16Z" fill="#4A4459"/>
</svg>
