<svg width="56" height="57" viewBox="0 0 56 57" fill="none" xmlns="http://www.w3.org/2000/svg">
<path d="M52.2666 24.7667V45.3C52.2666 47.3619 50.5952 49.0333 48.5333 49.0333H7.46661C5.40469 49.0333 3.73328 47.3619 3.73328 45.3V24.7667C3.73328 23.7359 4.56917 22.9 5.59994 22.9C5.85829 22.8433 6.1256 22.8433 6.38394 22.9L27.9999 37.8333L49.6533 22.9C49.8997 22.8485 50.1535 22.8485 50.3999 22.9C51.4307 22.9 52.2666 23.7359 52.2666 24.7667ZM4.66661 15.1347L4.96528 15.4333L27.9999 30.3667L51.1093 15.4333H51.3333C52.0038 15.0671 52.3756 14.3227 52.2666 13.5667C52.2666 12.5359 51.4307 11.7 50.3999 11.7H5.59994C4.56917 11.7 3.73328 12.5359 3.73328 13.5667C3.74298 14.2181 4.0984 14.8155 4.66661 15.1347Z" fill="#160D08"/>
</svg>
