<svg width="42" height="42" viewBox="0 0 42 42" fill="none" xmlns="http://www.w3.org/2000/svg">
<path fill-rule="evenodd" clip-rule="evenodd" d="M11.0463 21.8102C12.7969 14.875 15.2675 11.375 20.475 11.375C25.6825 11.375 28.1531 14.875 29.9036 21.8102L32.4187 31.5507H24.4557C24.4608 32.6847 24.0439 33.7781 23.2904 34.608C22.5657 35.4151 21.5448 35.8743 20.475 35.8743C19.4052 35.8743 18.3843 35.4151 17.6598 34.608C16.906 33.7781 16.4893 32.6847 16.4943 31.5507H8.53125L11.0463 21.8102Z" stroke="black" stroke-width="2.625" stroke-linecap="round" stroke-linejoin="round"/>
<path d="M22.1812 9.1875C22.906 9.1875 23.4937 8.59987 23.4937 7.875C23.4937 7.15013 22.906 6.5625 22.1812 6.5625V9.1875ZM18.7687 6.5625C18.0438 6.5625 17.4561 7.15013 17.4561 7.875C17.4561 8.59987 18.0438 9.1875 18.7687 9.1875V6.5625ZM11.0461 20.4978C10.3213 20.4978 9.73364 21.0854 9.73364 21.8103C9.73364 22.5351 10.3213 23.1228 11.0461 23.1228V20.4978ZM29.9036 23.1228C30.6284 23.1228 31.2161 22.5351 31.2161 21.8103C31.2161 21.0854 30.6284 20.4978 29.9036 20.4978V23.1228ZM16.4925 30.2382C15.7676 30.2382 15.18 30.8259 15.18 31.5507C15.18 32.2756 15.7676 32.8632 16.4925 32.8632V30.2382ZM24.4556 32.8632C25.1805 32.8632 25.7681 32.2756 25.7681 31.5507C25.7681 30.8259 25.1805 30.2382 24.4556 30.2382V32.8632ZM22.1812 6.5625H18.7687V9.1875H22.1812V6.5625ZM11.0461 23.1228H29.9036V20.4978H11.0461V23.1228ZM16.4925 32.8632H24.4556V30.2382H16.4925V32.8632Z" fill="black"/>
</svg>
