<svg width="42" height="42" viewBox="0 0 42 42" fill="none" xmlns="http://www.w3.org/2000/svg">
<g clip-path="url(#clip0_166_208)">
<path d="M35.1995 18.8072L26.25 9.85862V7C26.25 5.075 24.675 3.5 22.75 3.5H8.75C6.825 3.5 5.25 5.075 5.25 7V27.9606C5.25 29.8856 6.825 31.4606 8.75 31.4606H12.243L12.3489 32.1597C12.8923 35.7516 15.8594 38.4606 19.2509 38.4606H36.7509V23.5856C36.75 20.5476 35.574 19.1686 35.1995 18.8072ZM22.75 8.03688C22.5767 8.02025 22.4018 8.01062 22.225 8.01062C20.8206 8.01062 19.502 8.55575 18.515 9.54275C17.5245 10.5271 16.9767 11.8431 16.975 13.2475C16.9724 14.6571 17.5184 15.9801 18.5115 16.9741L22.75 21.2126V27.9606H16.625V7H22.75V8.03688ZM8.75 7H11.375V27.9606H8.75V7ZM33.25 34.9606H19.25C17.5744 34.9606 16.0956 33.5317 15.8086 31.6365L15.7824 31.4606H22.75C24.675 31.4606 26.25 29.8856 26.25 27.9606V24.7126L28.105 26.5676L30.5804 24.0931L26.5002 20.013L21.875 15.3886L20.986 14.4996C20.6552 14.1689 20.4741 13.7261 20.475 13.2536C20.4759 12.7864 20.6561 12.3497 20.986 12.0216C21.3561 11.6515 21.882 11.4966 22.3895 11.5421C22.7876 11.5771 23.1744 11.732 23.464 12.0216L27.125 15.6826L32.739 21.2966L32.676 21.2774L32.7714 21.3404C32.886 21.5127 33.25 22.1699 33.25 23.5856V34.9606Z" fill="#160D08"/>
</g>
<defs>
<clipPath id="clip0_166_208">
<rect width="42" height="42" fill="white"/>
</clipPath>
</defs>
</svg>
