<svg width="56" height="57" viewBox="0 0 56 57" fill="none" xmlns="http://www.w3.org/2000/svg">
<path d="M52.2963 51.2869C52.3148 51.262 52.3322 51.2368 52.3503 51.2118C52.3985 51.1451 52.4462 51.0781 52.4918 51.0101C52.5118 50.9804 52.5308 50.9501 52.5503 50.9201C52.592 50.856 52.6329 50.7917 52.6723 50.7265C52.6923 50.6933 52.7115 50.6598 52.731 50.6263C52.7675 50.5633 52.8035 50.5001 52.8379 50.4364C52.8571 50.4008 52.8756 50.365 52.8942 50.3293C52.9267 50.2665 52.9583 50.2035 52.9887 50.1401C53.0064 50.103 53.0238 50.0659 53.0409 50.0286C53.0698 49.9654 53.0976 49.9018 53.1246 49.838C53.1407 49.7999 53.1565 49.762 53.1718 49.7237C53.1975 49.6596 53.2219 49.595 53.2456 49.5303C53.2596 49.492 53.2737 49.4537 53.2871 49.4152C53.3098 49.3494 53.3311 49.2831 53.3518 49.2168C53.3636 49.179 53.3758 49.1414 53.3869 49.1034C53.4069 49.035 53.4253 48.9663 53.4431 48.8975C53.4525 48.8611 53.4626 48.8249 53.4715 48.7885C53.4891 48.7159 53.5046 48.643 53.5198 48.57C53.5267 48.537 53.5344 48.504 53.5407 48.471C53.5563 48.3901 53.5696 48.3088 53.5823 48.2274C53.5862 48.202 53.5911 48.1768 53.5947 48.1514C53.61 48.0452 53.6231 47.9387 53.6333 47.8319C53.6335 47.8313 53.6335 47.8307 53.6336 47.8301C53.6442 47.7199 53.652 47.6096 53.6573 47.4991C53.6576 47.4933 53.6575 47.4876 53.6577 47.4818C53.6623 47.3801 53.6647 47.2784 53.6648 47.1765C53.6648 47.147 53.6635 47.1174 53.6632 47.0878C53.6622 47.0099 53.6609 46.9318 53.6573 46.8538C53.6555 46.8164 53.6524 46.779 53.6501 46.7415C53.6457 46.6713 53.6411 46.6013 53.6345 46.5313C53.6306 46.4899 53.6255 46.4487 53.6209 46.4073C53.6134 46.3415 53.6059 46.2757 53.5966 46.2101C53.5904 46.1665 53.5831 46.1228 53.576 46.0793C53.5659 46.0161 53.5552 45.953 53.5433 45.8899C53.5348 45.845 53.5254 45.8003 53.516 45.7555C53.5031 45.6942 53.4896 45.6329 53.475 45.5719C53.464 45.5262 53.4524 45.4806 53.4405 45.4351C53.4249 45.3754 53.4086 45.3158 53.3913 45.2564C53.378 45.2102 53.3641 45.1643 53.3497 45.1183C53.3315 45.0599 53.3122 45.0017 53.2923 44.9437C53.2766 44.8975 53.2606 44.8516 53.2437 44.8056C53.2227 44.7482 53.2004 44.6911 53.1779 44.634C53.1597 44.5882 53.1417 44.5425 53.1225 44.4969C53.0986 44.4403 53.0733 44.3842 53.048 44.3281C53.0275 44.2829 53.0074 44.2378 52.986 44.1929C52.959 44.1368 52.9305 44.0812 52.9021 44.0257C52.8795 43.9818 52.8577 43.9377 52.8343 43.8941C52.8037 43.8375 52.7714 43.7818 52.7392 43.7259C52.7153 43.6842 52.6922 43.6423 52.6673 43.601C52.6316 43.5416 52.5935 43.4831 52.5558 43.4244C52.5322 43.3877 52.5096 43.3504 52.4852 43.314C52.4327 43.2355 52.3776 43.1582 52.3216 43.0814C52.3027 43.0555 52.2839 43.0295 52.2646 43.0038C52.2057 42.9251 52.1457 42.8472 52.0831 42.7703C54.628 38.4892 56 33.5957 56 28.5C56 13.0363 43.4637 0.5 28 0.5C12.5348 0.5 0 13.0356 0 28.5C0 43.9644 12.5348 56.5 28 56.5C33.0783 56.5 37.9582 55.1374 42.2291 52.6089C42.411 52.7568 42.5985 52.8934 42.7901 53.0199C42.801 53.0271 42.8121 53.0336 42.8229 53.0407C42.9065 53.0953 42.9907 53.1482 43.0759 53.1987C43.1048 53.2159 43.1342 53.2318 43.1633 53.2484C43.2312 53.2873 43.2994 53.326 43.3682 53.3625C43.4056 53.3824 43.4435 53.4009 43.4813 53.4199C43.5427 53.4511 43.6042 53.4819 43.6663 53.5111C43.7088 53.531 43.7515 53.5497 43.7942 53.5688C43.8526 53.5947 43.911 53.6204 43.97 53.6447C44.0155 53.6635 44.0613 53.6812 44.1071 53.6989C44.1642 53.721 44.2213 53.7427 44.2787 53.7631C44.326 53.78 44.3734 53.7961 44.421 53.8119C44.478 53.8308 44.5351 53.8492 44.5924 53.8666C44.6405 53.8812 44.6888 53.8953 44.7371 53.9088C44.7948 53.925 44.8525 53.9402 44.9104 53.9547C44.9587 53.9669 45.007 53.9789 45.0556 53.99C45.1146 54.0035 45.1736 54.0159 45.2329 54.0278C45.2805 54.0374 45.3281 54.047 45.3759 54.0557C45.4372 54.0667 45.4987 54.0764 45.5603 54.0858C45.6061 54.0928 45.6519 54.1001 45.6979 54.1061C45.7632 54.1147 45.8285 54.1216 45.894 54.1283C45.9363 54.1327 45.9785 54.1376 46.0208 54.1412C46.093 54.1473 46.1654 54.1514 46.2377 54.1552C46.2735 54.1571 46.3092 54.1599 46.3449 54.1612C46.4314 54.1645 46.518 54.1654 46.6046 54.1655C46.6262 54.1655 46.6479 54.1664 46.6695 54.1663C47.0016 54.1634 47.3335 54.1367 47.6625 54.0866C47.6742 54.0849 47.6857 54.0825 47.6975 54.0806C47.7944 54.0654 47.8909 54.0485 47.9872 54.0291C48.0068 54.0252 48.0261 54.0205 48.0457 54.0164C48.1341 53.9979 48.2222 53.9781 48.3101 53.9562C48.333 53.9504 48.3559 53.9439 48.3789 53.9379C48.463 53.9159 48.5469 53.8928 48.6302 53.8678C48.6549 53.8603 48.6794 53.8524 48.704 53.8446C48.7855 53.8191 48.8666 53.7924 48.9473 53.7639C48.9725 53.7549 48.9977 53.7456 49.0229 53.7363C49.1026 53.7071 49.182 53.6766 49.261 53.6443C49.286 53.6342 49.311 53.6237 49.3359 53.6132C49.4146 53.5799 49.493 53.5452 49.5707 53.5091C49.5949 53.4979 49.6191 53.4866 49.6431 53.475C49.7214 53.4375 49.7991 53.3983 49.8763 53.3578C49.8991 53.3458 49.9218 53.334 49.9445 53.3218C50.023 53.2795 50.1006 53.2353 50.1779 53.1898C50.1983 53.1777 50.2189 53.1659 50.2393 53.1537C50.3188 53.1057 50.3975 53.0557 50.4756 53.0044C50.4929 52.993 50.5104 52.9821 50.5275 52.9705C50.6098 52.9153 50.6909 52.858 50.7713 52.7991C50.7836 52.7901 50.7962 52.7816 50.8084 52.7725C50.8972 52.7065 50.9848 52.6383 51.0711 52.5677C51.0745 52.565 51.0779 52.5625 51.0813 52.5598C51.2638 52.41 51.441 52.2508 51.6113 52.0805C51.7802 51.9116 51.9381 51.7362 52.0863 51.5556C52.0996 51.5395 52.1118 51.523 52.1248 51.5069C52.1835 51.4346 52.241 51.3613 52.2963 51.2869ZM44.1749 48.0065L42.8023 46.6298L42.7995 46.6316L38.9233 42.7566C40.0757 41.6939 41.0852 40.4762 41.9101 39.1439L48.2788 45.5126C48.5576 45.7915 48.7523 46.1077 48.8689 46.4379C49.1522 47.2407 48.9624 48.129 48.312 48.7794C47.3704 49.721 45.9143 49.747 44.9816 48.8131L44.2493 48.0811L44.1749 48.0065ZM4.6667 28.5C4.6667 15.6128 15.1122 5.1667 28 5.1667C40.8863 5.1667 51.3333 15.6137 51.3333 28.5C51.3333 32.325 50.4068 36.0072 48.6732 39.3075L43.8768 34.511C44.1734 33.3209 44.3323 32.0888 44.3323 30.8338C44.3323 29.5452 43.2877 28.5005 41.999 28.5005C40.7104 28.5005 39.6657 29.5452 39.6657 30.8338C39.6657 31.8782 39.5052 32.9049 39.2091 33.8898L39.0322 34.3919C38.1549 36.8827 36.3953 39.0996 34.1259 40.5901L33.7031 40.8677C31.9861 41.8968 30.0257 42.5005 27.9991 42.5005C21.8631 42.5005 16.3324 36.9699 16.3324 30.8338C16.3324 29.5452 15.2878 28.5005 13.9991 28.5005C12.7105 28.5005 11.6658 29.5452 11.6658 30.8338C11.6658 39.5472 19.2859 47.1671 27.9991 47.1671C30.4815 47.1671 32.8747 46.5479 35.0288 45.4619L38.765 49.197C35.4758 50.9152 31.8078 51.8333 28 51.8333C15.1121 51.8333 4.6667 41.3872 4.6667 28.5Z" fill="#160D08"/>
<path d="M13.999 23.8338C15.2877 23.8338 16.3323 22.7892 16.3323 21.5005C16.3323 20.2109 17.376 19.1673 18.6656 19.1673C19.9553 19.1673 20.9989 20.2109 20.9989 21.5005C20.9989 22.7892 22.0436 23.8338 23.3322 23.8338C24.6209 23.8338 25.6655 22.7892 25.6655 21.5005C25.6655 17.6336 22.5325 14.5005 18.6655 14.5005C14.7986 14.5005 11.6655 17.6336 11.6655 21.5005C11.6657 22.7891 12.7104 23.8338 13.999 23.8338Z" fill="#160D08"/>
<path d="M32.6657 23.8338C33.9543 23.8338 34.999 22.7892 34.999 21.5005C34.999 20.2109 36.0426 19.1673 37.3323 19.1673C38.6219 19.1673 39.6656 20.2109 39.6656 21.5005C39.6656 22.7892 40.7102 23.8338 41.9989 23.8338C43.2875 23.8338 44.3322 22.7892 44.3322 21.5005C44.3322 17.6336 41.1991 14.5005 37.3322 14.5005C33.4652 14.5005 30.3322 17.6336 30.3322 21.5005C30.3324 22.7891 31.377 23.8338 32.6657 23.8338Z" fill="#160D08"/>
</svg>
